<svg width="42" height="42" viewBox="0 0 42 42" fill="none" xmlns="http://www.w3.org/2000/svg">
<circle cx="21" cy="21" r="20" fill="white" stroke="#191414" stroke-width="0.5"/>
<path fill-rule="evenodd" clip-rule="evenodd" d="M21 41V1C9.95431 1 1 9.95431 1 21C1 32.0457 9.95431 41 21 41Z" fill="#27B76F"/>
<path fill-rule="evenodd" clip-rule="evenodd" d="M41 21C41 32.0457 32.0457 41 21 41V1C32.0457 1 41 9.95431 41 21Z" fill="#20975C"/>
<g clip-path="url(#clip0_15_18)">
<path d="M33.582 19.7278C33.582 13.077 27.9745 7.66667 21.082 7.66667C14.1894 7.66667 8.58197 13.077 8.58197 19.7278C8.58197 22.4347 9.56975 24.9972 10.4855 27.0503C10.1603 27.6673 10.0463 28.4346 10.2223 29.2183C10.5848 30.8289 12.0293 31.8941 13.4484 31.597C13.6522 31.5543 13.8429 31.4831 14.0214 31.3923C14.4746 32.3082 15.5325 32.84 16.6055 32.6153C17.8576 32.3529 18.6522 31.1617 18.3807 29.9534L17.3312 25.2861C17.0589 24.0778 15.8241 23.3109 14.5713 23.5733C13.499 23.798 12.7644 24.7048 12.7457 25.7197C12.662 25.7151 12.5779 25.7153 12.4934 25.7197C11.7241 23.9408 10.9685 21.8256 10.9685 19.7277C10.9685 14.3469 15.5055 9.96955 21.082 9.96955C26.6584 9.96955 31.1954 14.3469 31.1954 19.7277C31.1954 21.8309 30.4361 23.9515 29.6648 25.7332C29.5265 25.7162 29.3888 25.712 29.252 25.7197C29.2333 24.7048 28.4987 23.798 27.4264 23.5733C26.1736 23.3109 24.9388 24.0778 24.6665 25.2861L23.6169 29.9534C23.3454 31.1617 24.1401 32.3529 25.3922 32.6153C26.4652 32.84 27.5231 32.3082 27.9762 31.3923C28.1549 31.4831 28.3455 31.5542 28.5493 31.597C29.9684 31.8942 31.413 30.8289 31.7754 29.2183C31.9349 28.5084 31.8572 27.8113 31.5996 27.2274C32.5364 25.1458 33.582 22.5125 33.582 19.7278Z" fill="#191414"/>
</g>
<defs>
<clipPath id="clip0_15_18">
<rect width="25" height="25" fill="white" transform="translate(8.58197 7.66667)"/>
</clipPath>
</defs>
</svg>
