<svg width="104" height="42" viewBox="0 0 104 42" fill="none" xmlns="http://www.w3.org/2000/svg">
<g style="mix-blend-mode:color-dodge">
<path d="M42.5316 8.1C43.3716 8.1 44.1616 8.26 44.9016 8.58C45.6416 8.9 46.2916 9.34 46.8516 9.9C47.4116 10.46 47.8516 11.11 48.1716 11.85C48.4916 12.59 48.6516 13.39 48.6516 14.25C48.6516 15.09 48.4916 15.89 48.1716 16.65C47.8516 17.39 47.4116 18.04 46.8516 18.6C46.2916 19.14 45.6416 19.57 44.9016 19.89C44.1616 20.21 43.3716 20.37 42.5316 20.37H37.6716V30H35.0616V8.1H42.5316ZM42.5316 17.73C43.0116 17.73 43.4616 17.64 43.8816 17.46C44.3216 17.28 44.6916 17.03 44.9916 16.71C45.3116 16.39 45.5616 16.02 45.7416 15.6C45.9416 15.18 46.0416 14.73 46.0416 14.25C46.0416 13.77 45.9416 13.32 45.7416 12.9C45.5616 12.46 45.3116 12.08 44.9916 11.76C44.6916 11.44 44.3216 11.19 43.8816 11.01C43.4616 10.83 43.0116 10.74 42.5316 10.74H37.6716V17.73H42.5316ZM51.1775 30H48.5975V22.5C48.5975 21.42 48.8175 20.4 49.2575 19.44C49.6975 18.48 50.2975 17.65 51.0575 16.95C51.8175 16.25 52.6975 15.7 53.6975 15.3C54.7175 14.88 55.8075 14.67 56.9675 14.67V17.25C56.1675 17.25 55.4175 17.39 54.7175 17.67C54.0175 17.93 53.3975 18.3 52.8575 18.78C52.3375 19.26 51.9275 19.82 51.6275 20.46C51.3275 21.1 51.1775 21.78 51.1775 22.5V30ZM70.5795 21.27C70.4195 20.71 70.1795 20.19 69.8595 19.71C69.5595 19.21 69.1895 18.79 68.7495 18.45C68.3095 18.09 67.8095 17.81 67.2495 17.61C66.7095 17.41 66.1295 17.31 65.5095 17.31C64.8895 17.31 64.2995 17.41 63.7395 17.61C63.1995 17.81 62.7095 18.09 62.2695 18.45C61.8295 18.79 61.4495 19.21 61.1295 19.71C60.8095 20.19 60.5795 20.71 60.4395 21.27H70.5795ZM65.5095 30.36C64.4295 30.36 63.4095 30.16 62.4495 29.76C61.5095 29.34 60.6795 28.78 59.9595 28.08C59.2595 27.36 58.6995 26.53 58.2795 25.59C57.8795 24.65 57.6795 23.64 57.6795 22.56C57.6795 21.48 57.8795 20.46 58.2795 19.5C58.6995 18.54 59.2595 17.71 59.9595 17.01C60.6795 16.31 61.5095 15.76 62.4495 15.36C63.4095 14.94 64.4295 14.73 65.5095 14.73C66.5895 14.73 67.5995 14.94 68.5395 15.36C69.4995 15.76 70.3295 16.31 71.0295 17.01C71.7295 17.71 72.2795 18.54 72.6795 19.5C73.0995 20.46 73.3095 21.48 73.3095 22.56C73.3095 22.7 73.3095 22.85 73.3095 23.01C73.3095 23.17 73.2895 23.44 73.2495 23.82H60.4395C60.5795 24.4 60.8095 24.93 61.1295 25.41C61.4495 25.89 61.8295 26.31 62.2695 26.67C62.7095 27.03 63.1995 27.31 63.7395 27.51C64.2995 27.71 64.8895 27.81 65.5095 27.81C65.9895 27.81 66.4695 27.69 66.9495 27.45C67.4295 27.19 67.8895 26.85 68.3295 26.43L70.1295 28.23C69.4695 28.87 68.7395 29.39 67.9395 29.79C67.1595 30.17 66.3495 30.36 65.5095 30.36ZM76.1944 11.67C76.1944 11.09 76.3044 10.55 76.5244 10.05C76.7444 9.53 77.0444 9.09 77.4244 8.73C77.8044 8.35 78.2444 8.05 78.7444 7.83C79.2644 7.61 79.8144 7.5 80.3944 7.5C80.9744 7.5 81.5144 7.63 82.0144 7.89C82.5344 8.13 82.9844 8.46 83.3644 8.88C83.7444 9.3 84.0444 9.8 84.2644 10.38C84.4844 10.94 84.5944 11.55 84.5944 12.21H82.0144C82.0144 11.61 81.8544 11.1 81.5344 10.68C81.2344 10.26 80.8544 10.05 80.3944 10.05C79.9344 10.05 79.5444 10.21 79.2244 10.53C78.9244 10.83 78.7744 11.21 78.7744 11.67V19.74H84.0244V22.32H78.7744V30H76.1944V11.67ZM93.1229 30.27C92.3029 30.27 91.5229 30.11 90.7829 29.79C90.0629 29.47 89.4329 29.04 88.8929 28.5C88.3529 27.96 87.9229 27.33 87.6029 26.61C87.2829 25.87 87.1229 25.09 87.1229 24.27V14.97H89.7029V24.27C89.7029 24.75 89.7929 25.2 89.9729 25.62C90.1529 26.04 90.3929 26.41 90.6929 26.73C91.0129 27.03 91.3729 27.27 91.7729 27.45C92.1929 27.63 92.6429 27.72 93.1229 27.72C93.6029 27.72 94.0529 27.63 94.4729 27.45C94.8929 27.27 95.2529 27.03 95.5529 26.73C95.8729 26.41 96.1229 26.04 96.3029 25.62C96.4829 25.2 96.5729 24.75 96.5729 24.27V14.97H99.1229V30.99C99.1229 31.83 98.9529 32.61 98.6129 33.33C98.2729 34.07 97.8029 34.71 97.2029 35.25C96.6229 35.79 95.9329 36.21 95.1329 36.51C94.3329 36.83 93.4729 36.99 92.5529 36.99V34.44C93.1129 34.44 93.6329 34.35 94.1129 34.17C94.6129 33.99 95.0429 33.74 95.4029 33.42C95.7629 33.1 96.0429 32.73 96.2429 32.31C96.4629 31.91 96.5729 31.47 96.5729 30.99V29.19C96.0729 29.53 95.5329 29.8 94.9529 30C94.3729 30.18 93.7629 30.27 93.1229 30.27Z" fill="#1D8954"/>
<path d="M44.9016 8.58L45.0207 8.30464L45.0207 8.30464L44.9016 8.58ZM46.8516 9.9L46.6395 10.1121L46.6395 10.1121L46.8516 9.9ZM48.1716 11.85L47.8963 11.9691L47.8963 11.9691L48.1716 11.85ZM48.1716 16.65L48.447 16.7691L48.4481 16.7664L48.1716 16.65ZM46.8516 18.6L47.0599 18.816L47.0638 18.8121L46.8516 18.6ZM37.6716 20.37V20.07H37.3716V20.37H37.6716ZM37.6716 30V30.3H37.9716V30H37.6716ZM35.0616 30H34.7616V30.3H35.0616V30ZM35.0616 8.1V7.8H34.7616V8.1H35.0616ZM43.8816 17.46L43.768 17.1823L43.7634 17.1843L43.8816 17.46ZM44.9916 16.71L44.7794 16.4978L44.7728 16.5048L44.9916 16.71ZM45.7416 15.6L45.4705 15.4709L45.4659 15.4818L45.7416 15.6ZM45.7416 12.9L45.464 13.0136L45.4671 13.0214L45.4708 13.029L45.7416 12.9ZM44.9916 11.76L44.7726 11.9653L44.7795 11.9721L44.9916 11.76ZM43.8816 11.01L43.7634 11.2858L43.768 11.2877L43.8816 11.01ZM37.6716 10.74V10.44H37.3716V10.74H37.6716ZM37.6716 17.73H37.3716V18.03H37.6716V17.73ZM42.5316 8.4C43.3324 8.4 44.0817 8.55229 44.7825 8.85536L45.0207 8.30464C44.2415 7.9677 43.4108 7.8 42.5316 7.8V8.4ZM44.7825 8.85536C45.4885 9.16061 46.1067 9.57937 46.6395 10.1121L47.0638 9.68787C46.4765 9.10062 45.7948 8.63938 45.0207 8.30464L44.7825 8.85536ZM46.6395 10.1121C47.1722 10.6449 47.591 11.2632 47.8963 11.9691L48.447 11.7309C48.1122 10.9568 47.651 10.2751 47.0638 9.68787L46.6395 10.1121ZM47.8963 11.9691C48.1989 12.669 48.3516 13.4282 48.3516 14.25H48.9516C48.9516 13.3518 48.7843 12.511 48.447 11.7309L47.8963 11.9691ZM48.3516 14.25C48.3516 15.0508 48.1993 15.8111 47.8951 16.5336L48.4481 16.7664C48.7839 15.9689 48.9516 15.1292 48.9516 14.25H48.3516ZM47.8963 16.5309C47.591 17.2368 47.1722 17.8551 46.6395 18.3879L47.0638 18.8121C47.651 18.2249 48.1122 17.5432 48.447 16.7691L47.8963 16.5309ZM46.6434 18.384C46.1102 18.8981 45.4907 19.3084 44.7825 19.6146L45.0207 20.1654C45.7925 19.8316 46.473 19.3819 47.0599 18.816L46.6434 18.384ZM44.7825 19.6146C44.0817 19.9177 43.3324 20.07 42.5316 20.07V20.67C43.4108 20.67 44.2415 20.5023 45.0207 20.1654L44.7825 19.6146ZM42.5316 20.07H37.6716V20.67H42.5316V20.07ZM37.3716 20.37V30H37.9716V20.37H37.3716ZM37.6716 29.7H35.0616V30.3H37.6716V29.7ZM35.3616 30V8.1H34.7616V30H35.3616ZM35.0616 8.4H42.5316V7.8H35.0616V8.4ZM42.5316 18.03C43.0502 18.03 43.5406 17.9325 43.9998 17.7357L43.7634 17.1843C43.3827 17.3474 42.9731 17.43 42.5316 17.43V18.03ZM43.9952 17.7377C44.4717 17.5427 44.8786 17.2692 45.2105 16.9152L44.7728 16.5048C44.5046 16.7908 44.1715 17.0173 43.768 17.1823L43.9952 17.7377ZM45.2038 16.9221C45.551 16.5749 45.8225 16.1729 46.0174 15.7182L45.4659 15.4818C45.3008 15.8671 45.0722 16.2051 44.7795 16.4979L45.2038 16.9221ZM46.0125 15.729C46.2323 15.2674 46.3416 14.7732 46.3416 14.25H45.7416C45.7416 14.6868 45.651 15.0926 45.4708 15.471L46.0125 15.729ZM46.3416 14.25C46.3416 13.7268 46.2323 13.2326 46.0125 12.771L45.4708 13.029C45.651 13.4074 45.7416 13.8132 45.7416 14.25H46.3416ZM46.0193 12.7864C45.825 12.3114 45.5533 11.8974 45.2038 11.5479L44.7795 11.9721C45.0699 12.2625 45.2983 12.6086 45.464 13.0136L46.0193 12.7864ZM45.2105 11.5548C44.8786 11.2008 44.4717 10.9273 43.9952 10.7323L43.768 11.2877C44.1715 11.4527 44.5046 11.6792 44.7728 11.9652L45.2105 11.5548ZM43.9998 10.7343C43.5406 10.5374 43.0502 10.44 42.5316 10.44V11.04C42.9731 11.04 43.3827 11.1225 43.7634 11.2857L43.9998 10.7343ZM42.5316 10.44H37.6716V11.04H42.5316V10.44ZM37.3716 10.74V17.73H37.9716V10.74H37.3716ZM37.6716 18.03H42.5316V17.43H37.6716V18.03ZM51.1775 30V30.3H51.4775V30H51.1775ZM48.5975 30H48.2975V30.3H48.5975V30ZM49.2575 19.44L48.9848 19.315L48.9848 19.315L49.2575 19.44ZM51.0575 16.95L50.8542 16.7293L50.8542 16.7293L51.0575 16.95ZM53.6975 15.3L53.8089 15.5786L53.8117 15.5774L53.6975 15.3ZM56.9675 14.67H57.2675V14.37H56.9675V14.67ZM56.9675 17.25V17.55H57.2675V17.25H56.9675ZM54.7175 17.67L54.822 17.9513L54.8289 17.9485L54.7175 17.67ZM52.8575 18.78L52.6581 18.5557L52.654 18.5596L52.8575 18.78ZM51.1775 29.7H48.5975V30.3H51.1775V29.7ZM48.8975 30V22.5H48.2975V30H48.8975ZM48.8975 22.5C48.8975 21.4621 49.1086 20.4849 49.5302 19.565L48.9848 19.315C48.5264 20.3151 48.2975 21.3779 48.2975 22.5H48.8975ZM49.5302 19.565C49.954 18.6404 50.5307 17.8431 51.2607 17.1707L50.8542 16.7293C50.0643 17.4569 49.441 18.3196 48.9848 19.315L49.5302 19.565ZM51.2607 17.1707C51.9928 16.4964 52.8413 15.9656 53.8089 15.5785L53.5861 15.0215C52.5536 15.4344 51.6422 16.0036 50.8542 16.7293L51.2607 17.1707ZM53.8117 15.5774C54.7936 15.1731 55.8446 14.97 56.9675 14.97V14.37C55.7703 14.37 54.6413 14.5869 53.5833 15.0226L53.8117 15.5774ZM56.6675 14.67V17.25H57.2675V14.67H56.6675ZM56.9675 16.95C56.1317 16.95 55.3436 17.0964 54.6061 17.3915L54.8289 17.9485C55.4913 17.6836 56.2033 17.55 56.9675 17.55V16.95ZM54.613 17.3888C53.8793 17.6613 53.2269 18.0502 52.6582 18.5558L53.0568 19.0042C53.568 18.5498 54.1556 18.1987 54.8219 17.9512L54.613 17.3888ZM52.654 18.5596C52.1055 19.0659 51.6723 19.6575 51.3558 20.3327L51.8991 20.5873C52.1826 19.9825 52.5695 19.4541 53.061 19.0004L52.654 18.5596ZM51.3558 20.3327C51.0368 21.0133 50.8775 21.7368 50.8775 22.5H51.4775C51.4775 21.8232 51.6182 21.1867 51.8991 20.5873L51.3558 20.3327ZM50.8775 22.5V30H51.4775V22.5H50.8775ZM70.5795 21.27V21.57H70.9772L70.868 21.1876L70.5795 21.27ZM69.8595 19.71L69.6023 19.8643L69.6059 19.8705L69.6099 19.8764L69.8595 19.71ZM68.7495 18.45L68.5595 18.6823L68.5661 18.6874L68.7495 18.45ZM67.2495 17.61L67.1453 17.8913L67.1486 17.8925L67.2495 17.61ZM63.7395 17.61L63.6386 17.3275L63.6353 17.3287L63.7395 17.61ZM62.2695 18.45L62.453 18.6875L62.4595 18.6822L62.2695 18.45ZM61.1295 19.71L61.3792 19.8764L61.3822 19.8717L61.1295 19.71ZM60.4395 21.27L60.1485 21.1972L60.0553 21.57H60.4395V21.27ZM62.4495 29.76L62.3271 30.034L62.3341 30.0369L62.4495 29.76ZM59.9595 28.08L59.7443 28.2892L59.7504 28.2951L59.9595 28.08ZM58.2795 25.59L58.0034 25.7075L58.0056 25.7124L58.2795 25.59ZM58.2795 19.5L58.0046 19.3797L58.0026 19.3846L58.2795 19.5ZM59.9595 17.01L59.7504 16.7949L59.7474 16.7979L59.9595 17.01ZM62.4495 15.36L62.567 15.6361L62.5698 15.6348L62.4495 15.36ZM68.5395 15.36L68.4171 15.634L68.4241 15.6369L68.5395 15.36ZM71.0295 17.01L70.8174 17.2221L70.8174 17.2221L71.0295 17.01ZM72.6795 19.5L72.4025 19.6154L72.4047 19.6202L72.6795 19.5ZM73.2495 23.82V24.12H73.5196L73.5479 23.8514L73.2495 23.82ZM60.4395 23.82V23.52H60.0585L60.1479 23.8904L60.4395 23.82ZM61.1295 25.41L61.3791 25.2436L61.3791 25.2436L61.1295 25.41ZM62.2695 26.67L62.4595 26.4378L62.4595 26.4378L62.2695 26.67ZM63.7395 27.51L63.6353 27.7913L63.6386 27.7925L63.7395 27.51ZM66.9495 27.45L67.0837 27.7185L67.0924 27.7138L66.9495 27.45ZM68.3295 26.43L68.5416 26.2179L68.3344 26.0106L68.1224 26.213L68.3295 26.43ZM70.1295 28.23L70.3384 28.4454L70.5571 28.2333L70.3416 28.0179L70.1295 28.23ZM67.9395 29.79L68.0709 30.0597L68.0737 30.0583L67.9395 29.79ZM70.868 21.1876C70.6995 20.598 70.4465 20.0497 70.1091 19.5436L69.6099 19.8764C69.9125 20.3303 70.1395 20.822 70.2911 21.3524L70.868 21.1876ZM70.1168 19.5557C69.7985 19.0252 69.4039 18.5766 68.9329 18.2126L68.5661 18.6874C68.9751 19.0034 69.3205 19.3948 69.6023 19.8643L70.1168 19.5557ZM68.9395 18.2178C68.4717 17.8351 67.9413 17.5385 67.3504 17.3275L67.1486 17.8925C67.6778 18.0815 68.1473 18.3449 68.5595 18.6822L68.9395 18.2178ZM67.3537 17.3287C66.7779 17.1154 66.1623 17.01 65.5095 17.01V17.61C66.0967 17.61 66.6411 17.7046 67.1453 17.8913L67.3537 17.3287ZM65.5095 17.01C64.8566 17.01 64.2324 17.1154 63.6386 17.3275L63.8404 17.8925C64.3667 17.7046 64.9224 17.61 65.5095 17.61V17.01ZM63.6353 17.3287C63.0646 17.54 62.5456 17.8365 62.0795 18.2178L62.4595 18.6822C62.8735 18.3435 63.3344 18.08 63.8437 17.8913L63.6353 17.3287ZM62.0861 18.2126C61.617 18.5751 61.2141 19.0212 60.8768 19.5483L61.3822 19.8717C61.6849 19.3988 62.042 19.0049 62.4529 18.6874L62.0861 18.2126ZM60.8799 19.5436C60.5408 20.0522 60.2968 20.6039 60.1485 21.1972L60.7306 21.3428C60.8622 20.8161 61.0782 20.3278 61.3791 19.8764L60.8799 19.5436ZM60.4395 21.57H70.5795V20.97H60.4395V21.57ZM65.5095 30.06C64.4676 30.06 63.4869 29.8673 62.5649 29.4831L62.3341 30.0369C63.3321 30.4527 64.3915 30.66 65.5095 30.66V30.06ZM62.5719 29.4861C61.6632 29.0801 60.8628 28.5397 60.1686 27.8649L59.7504 28.2951C60.4963 29.0203 61.3558 29.5999 62.3271 30.0339L62.5719 29.4861ZM60.1746 27.8709C59.4998 27.1768 58.9594 26.3763 58.5534 25.4676L58.0056 25.7124C58.4396 26.6837 59.0192 27.5432 59.7444 28.2891L60.1746 27.8709ZM58.5556 25.4725C58.1723 24.5718 57.9795 23.602 57.9795 22.56H57.3795C57.3795 23.678 57.5868 24.7282 58.0035 25.7075L58.5556 25.4725ZM57.9795 22.56C57.9795 21.5181 58.1723 20.5374 58.5564 19.6154L58.0026 19.3846C57.5868 20.3826 57.3795 21.4419 57.3795 22.56H57.9795ZM58.5544 19.6202C58.9603 18.6925 59.4996 17.8942 60.1716 17.2221L59.7474 16.7979C59.0194 17.5258 58.4388 18.3875 58.0047 19.3798L58.5544 19.6202ZM60.1686 17.2251C60.8616 16.5513 61.6604 16.0218 62.567 15.636L62.332 15.084C61.3586 15.4982 60.4974 16.0687 59.7504 16.7949L60.1686 17.2251ZM62.5698 15.6348C63.4907 15.2319 64.4696 15.03 65.5095 15.03V14.43C64.3894 14.43 63.3284 14.648 62.3293 15.0852L62.5698 15.6348ZM65.5095 15.03C66.5494 15.03 67.5175 15.2319 68.4171 15.6339L68.6619 15.0861C67.6815 14.6481 66.6296 14.43 65.5095 14.43V15.03ZM68.4241 15.6369C69.3498 16.0226 70.1465 16.5512 70.8174 17.2221L71.2416 16.7979C70.5125 16.0688 69.6492 15.4974 68.6549 15.0831L68.4241 15.6369ZM70.8174 17.2221C71.4883 17.893 72.0169 18.6897 72.4026 19.6154L72.9564 19.3846C72.5421 18.3903 71.9707 17.527 71.2416 16.7979L70.8174 17.2221ZM72.4047 19.6202C72.8076 20.5412 73.0095 21.5201 73.0095 22.56H73.6095C73.6095 21.4399 73.3915 20.3788 72.9544 19.3798L72.4047 19.6202ZM73.0095 22.56C73.0095 22.5603 73.0095 22.5605 73.0095 22.5608C73.0095 22.5611 73.0095 22.5614 73.0095 22.5616C73.0095 22.5619 73.0095 22.5622 73.0095 22.5625C73.0095 22.5627 73.0095 22.563 73.0095 22.5633C73.0095 22.5636 73.0095 22.5638 73.0095 22.5641C73.0095 22.5644 73.0095 22.5647 73.0095 22.5649C73.0095 22.5652 73.0095 22.5655 73.0095 22.5657C73.0095 22.566 73.0095 22.5663 73.0095 22.5666C73.0095 22.5668 73.0095 22.5671 73.0095 22.5674C73.0095 22.5677 73.0095 22.5679 73.0095 22.5682C73.0095 22.5685 73.0095 22.5688 73.0095 22.569C73.0095 22.5693 73.0095 22.5696 73.0095 22.5699C73.0095 22.5701 73.0095 22.5704 73.0095 22.5707C73.0095 22.571 73.0095 22.5712 73.0095 22.5715C73.0095 22.5718 73.0095 22.5721 73.0095 22.5723C73.0095 22.5726 73.0095 22.5729 73.0095 22.5732C73.0095 22.5734 73.0095 22.5737 73.0095 22.574C73.0095 22.5743 73.0095 22.5745 73.0095 22.5748C73.0095 22.5751 73.0095 22.5754 73.0095 22.5756C73.0095 22.5759 73.0095 22.5762 73.0095 22.5765C73.0095 22.5767 73.0095 22.577 73.0095 22.5773C73.0095 22.5776 73.0095 22.5778 73.0095 22.5781C73.0095 22.5784 73.0095 22.5787 73.0095 22.5789C73.0095 22.5792 73.0095 22.5795 73.0095 22.5798C73.0095 22.58 73.0095 22.5803 73.0095 22.5806C73.0095 22.5809 73.0095 22.5811 73.0095 22.5814C73.0095 22.5817 73.0095 22.582 73.0095 22.5822C73.0095 22.5825 73.0095 22.5828 73.0095 22.5831C73.0095 22.5833 73.0095 22.5836 73.0095 22.5839C73.0095 22.5842 73.0095 22.5844 73.0095 22.5847C73.0095 22.585 73.0095 22.5853 73.0095 22.5855C73.0095 22.5858 73.0095 22.5861 73.0095 22.5864C73.0095 22.5866 73.0095 22.5869 73.0095 22.5872C73.0095 22.5875 73.0095 22.5877 73.0095 22.588C73.0095 22.5883 73.0095 22.5886 73.0095 22.5889C73.0095 22.5891 73.0095 22.5894 73.0095 22.5897C73.0095 22.59 73.0095 22.5902 73.0095 22.5905C73.0095 22.5908 73.0095 22.5911 73.0095 22.5913C73.0095 22.5916 73.0095 22.5919 73.0095 22.5922C73.0095 22.5924 73.0095 22.5927 73.0095 22.593C73.0095 22.5933 73.0095 22.5935 73.0095 22.5938C73.0095 22.5941 73.0095 22.5944 73.0095 22.5947C73.0095 22.5949 73.0095 22.5952 73.0095 22.5955C73.0095 22.5958 73.0095 22.596 73.0095 22.5963C73.0095 22.5966 73.0095 22.5969 73.0095 22.5971C73.0095 22.5974 73.0095 22.5977 73.0095 22.598C73.0095 22.5983 73.0095 22.5985 73.0095 22.5988C73.0095 22.5991 73.0095 22.5994 73.0095 22.5996C73.0095 22.5999 73.0095 22.6002 73.0095 22.6005C73.0095 22.6007 73.0095 22.601 73.0095 22.6013C73.0095 22.6016 73.0095 22.6019 73.0095 22.6021C73.0095 22.6024 73.0095 22.6027 73.0095 22.603C73.0095 22.6032 73.0095 22.6035 73.0095 22.6038C73.0095 22.6041 73.0095 22.6044 73.0095 22.6046C73.0095 22.6049 73.0095 22.6052 73.0095 22.6055C73.0095 22.6057 73.0095 22.606 73.0095 22.6063C73.0095 22.6066 73.0095 22.6069 73.0095 22.6071C73.0095 22.6074 73.0095 22.6077 73.0095 22.608C73.0095 22.6082 73.0095 22.6085 73.0095 22.6088C73.0095 22.6091 73.0095 22.6094 73.0095 22.6096C73.0095 22.6099 73.0095 22.6102 73.0095 22.6105C73.0095 22.6107 73.0095 22.611 73.0095 22.6113C73.0095 22.6116 73.0095 22.6119 73.0095 22.6121C73.0095 22.6124 73.0095 22.6127 73.0095 22.613C73.0095 22.6132 73.0095 22.6135 73.0095 22.6138C73.0095 22.6141 73.0095 22.6144 73.0095 22.6146C73.0095 22.6149 73.0095 22.6152 73.0095 22.6155C73.0095 22.6158 73.0095 22.616 73.0095 22.6163C73.0095 22.6166 73.0095 22.6169 73.0095 22.6171C73.0095 22.6174 73.0095 22.6177 73.0095 22.618C73.0095 22.6183 73.0095 22.6185 73.0095 22.6188C73.0095 22.6191 73.0095 22.6194 73.0095 22.6197C73.0095 22.6199 73.0095 22.6202 73.0095 22.6205C73.0095 22.6208 73.0095 22.6211 73.0095 22.6213C73.0095 22.6216 73.0095 22.6219 73.0095 22.6222C73.0095 22.6224 73.0095 22.6227 73.0095 22.623C73.0095 22.6233 73.0095 22.6236 73.0095 22.6238C73.0095 22.6241 73.0095 22.6244 73.0095 22.6247C73.0095 22.625 73.0095 22.6252 73.0095 22.6255C73.0095 22.6258 73.0095 22.6261 73.0095 22.6264C73.0095 22.6266 73.0095 22.6269 73.0095 22.6272C73.0095 22.6275 73.0095 22.6278 73.0095 22.628C73.0095 22.6283 73.0095 22.6286 73.0095 22.6289C73.0095 22.6292 73.0095 22.6294 73.0095 22.6297C73.0095 22.63 73.0095 22.6303 73.0095 22.6306C73.0095 22.6308 73.0095 22.6311 73.0095 22.6314C73.0095 22.6317 73.0095 22.632 73.0095 22.6322C73.0095 22.6325 73.0095 22.6328 73.0095 22.6331C73.0095 22.6334 73.0095 22.6336 73.0095 22.6339C73.0095 22.6342 73.0095 22.6345 73.0095 22.6348C73.0095 22.635 73.0095 22.6353 73.0095 22.6356C73.0095 22.6359 73.0095 22.6362 73.0095 22.6364C73.0095 22.6367 73.0095 22.637 73.0095 22.6373C73.0095 22.6376 73.0095 22.6378 73.0095 22.6381C73.0095 22.6384 73.0095 22.6387 73.0095 22.639C73.0095 22.6392 73.0095 22.6395 73.0095 22.6398C73.0095 22.6401 73.0095 22.6404 73.0095 22.6406C73.0095 22.6409 73.0095 22.6412 73.0095 22.6415C73.0095 22.6418 73.0095 22.6421 73.0095 22.6423C73.0095 22.6426 73.0095 22.6429 73.0095 22.6432C73.0095 22.6435 73.0095 22.6437 73.0095 22.644C73.0095 22.6443 73.0095 22.6446 73.0095 22.6449C73.0095 22.6451 73.0095 22.6454 73.0095 22.6457C73.0095 22.646 73.0095 22.6463 73.0095 22.6465C73.0095 22.6468 73.0095 22.6471 73.0095 22.6474C73.0095 22.6477 73.0095 22.648 73.0095 22.6482C73.0095 22.6485 73.0095 22.6488 73.0095 22.6491C73.0095 22.6494 73.0095 22.6496 73.0095 22.6499C73.0095 22.6502 73.0095 22.6505 73.0095 22.6508C73.0095 22.6511 73.0095 22.6513 73.0095 22.6516C73.0095 22.6519 73.0095 22.6522 73.0095 22.6525C73.0095 22.6527 73.0095 22.653 73.0095 22.6533C73.0095 22.6536 73.0095 22.6539 73.0095 22.6542C73.0095 22.6544 73.0095 22.6547 73.0095 22.655C73.0095 22.6553 73.0095 22.6556 73.0095 22.6558C73.0095 22.6561 73.0095 22.6564 73.0095 22.6567C73.0095 22.657 73.0095 22.6573 73.0095 22.6575C73.0095 22.6578 73.0095 22.6581 73.0095 22.6584C73.0095 22.6587 73.0095 22.659 73.0095 22.6592C73.0095 22.6595 73.0095 22.6598 73.0095 22.6601C73.0095 22.6604 73.0095 22.6607 73.0095 22.6609C73.0095 22.6612 73.0095 22.6615 73.0095 22.6618C73.0095 22.6621 73.0095 22.6623 73.0095 22.6626C73.0095 22.6629 73.0095 22.6632 73.0095 22.6635C73.0095 22.6638 73.0095 22.664 73.0095 22.6643C73.0095 22.6646 73.0095 22.6649 73.0095 22.6652C73.0095 22.6655 73.0095 22.6657 73.0095 22.666C73.0095 22.6663 73.0095 22.6666 73.0095 22.6669C73.0095 22.6672 73.0095 22.6674 73.0095 22.6677C73.0095 22.668 73.0095 22.6683 73.0095 22.6686C73.0095 22.6689 73.0095 22.6691 73.0095 22.6694C73.0095 22.6697 73.0095 22.67 73.0095 22.6703C73.0095 22.6706 73.0095 22.6708 73.0095 22.6711C73.0095 22.6714 73.0095 22.6717 73.0095 22.672C73.0095 22.6723 73.0095 22.6725 73.0095 22.6728C73.0095 22.6731 73.0095 22.6734 73.0095 22.6737C73.0095 22.674 73.0095 22.6742 73.0095 22.6745C73.0095 22.6748 73.0095 22.6751 73.0095 22.6754C73.0095 22.6757 73.0095 22.676 73.0095 22.6762C73.0095 22.6765 73.0095 22.6768 73.0095 22.6771C73.0095 22.6774 73.0095 22.6777 73.0095 22.6779C73.0095 22.6782 73.0095 22.6785 73.0095 22.6788C73.0095 22.6791 73.0095 22.6794 73.0095 22.6796C73.0095 22.6799 73.0095 22.6802 73.0095 22.6805C73.0095 22.6808 73.0095 22.6811 73.0095 22.6814C73.0095 22.6816 73.0095 22.6819 73.0095 22.6822C73.0095 22.6825 73.0095 22.6828 73.0095 22.6831C73.0095 22.6833 73.0095 22.6836 73.0095 22.6839C73.0095 22.6842 73.0095 22.6845 73.0095 22.6848C73.0095 22.6851 73.0095 22.6853 73.0095 22.6856C73.0095 22.6859 73.0095 22.6862 73.0095 22.6865C73.0095 22.6868 73.0095 22.687 73.0095 22.6873C73.0095 22.6876 73.0095 22.6879 73.0095 22.6882C73.0095 22.6885 73.0095 22.6888 73.0095 22.689C73.0095 22.6893 73.0095 22.6896 73.0095 22.6899C73.0095 22.6902 73.0095 22.6905 73.0095 22.6908C73.0095 22.691 73.0095 22.6913 73.0095 22.6916C73.0095 22.6919 73.0095 22.6922 73.0095 22.6925C73.0095 22.6928 73.0095 22.693 73.0095 22.6933C73.0095 22.6936 73.0095 22.6939 73.0095 22.6942C73.0095 22.6945 73.0095 22.6948 73.0095 22.695C73.0095 22.6953 73.0095 22.6956 73.0095 22.6959C73.0095 22.6962 73.0095 22.6965 73.0095 22.6968C73.0095 22.697 73.0095 22.6973 73.0095 22.6976C73.0095 22.6979 73.0095 22.6982 73.0095 22.6985C73.0095 22.6988 73.0095 22.699 73.0095 22.6993C73.0095 22.6996 73.0095 22.6999 73.0095 22.7002C73.0095 22.7005 73.0095 22.7008 73.0095 22.701C73.0095 22.7013 73.0095 22.7016 73.0095 22.7019C73.0095 22.7022 73.0095 22.7025 73.0095 22.7028C73.0095 22.703 73.0095 22.7033 73.0095 22.7036C73.0095 22.7039 73.0095 22.7042 73.0095 22.7045C73.0095 22.7048 73.0095 22.7051 73.0095 22.7053C73.0095 22.7056 73.0095 22.7059 73.0095 22.7062C73.0095 22.7065 73.0095 22.7068 73.0095 22.7071C73.0095 22.7073 73.0095 22.7076 73.0095 22.7079C73.0095 22.7082 73.0095 22.7085 73.0095 22.7088C73.0095 22.7091 73.0095 22.7094 73.0095 22.7096C73.0095 22.7099 73.0095 22.7102 73.0095 22.7105C73.0095 22.7108 73.0095 22.7111 73.0095 22.7114C73.0095 22.7117 73.0095 22.7119 73.0095 22.7122C73.0095 22.7125 73.0095 22.7128 73.0095 22.7131C73.0095 22.7134 73.0095 22.7137 73.0095 22.7139C73.0095 22.7142 73.0095 22.7145 73.0095 22.7148C73.0095 22.7151 73.0095 22.7154 73.0095 22.7157C73.0095 22.716 73.0095 22.7162 73.0095 22.7165C73.0095 22.7168 73.0095 22.7171 73.0095 22.7174C73.0095 22.7177 73.0095 22.718 73.0095 22.7183C73.0095 22.7186 73.0095 22.7188 73.0095 22.7191C73.0095 22.7194 73.0095 22.7197 73.0095 22.72C73.0095 22.7203 73.0095 22.7206 73.0095 22.7209C73.0095 22.7211 73.0095 22.7214 73.0095 22.7217C73.0095 22.722 73.0095 22.7223 73.0095 22.7226C73.0095 22.7229 73.0095 22.7232 73.0095 22.7234C73.0095 22.7237 73.0095 22.724 73.0095 22.7243C73.0095 22.7246 73.0095 22.7249 73.0095 22.7252C73.0095 22.7255 73.0095 22.7258 73.0095 22.726C73.0095 22.7263 73.0095 22.7266 73.0095 22.7269C73.0095 22.7272 73.0095 22.7275 73.0095 22.7278C73.0095 22.7281 73.0095 22.7284 73.0095 22.7286C73.0095 22.7289 73.0095 22.7292 73.0095 22.7295C73.0095 22.7298 73.0095 22.7301 73.0095 22.7304C73.0095 22.7307 73.0095 22.731 73.0095 22.7312C73.0095 22.7315 73.0095 22.7318 73.0095 22.7321C73.0095 22.7324 73.0095 22.7327 73.0095 22.733C73.0095 22.7333 73.0095 22.7336 73.0095 22.7338C73.0095 22.7341 73.0095 22.7344 73.0095 22.7347C73.0095 22.735 73.0095 22.7353 73.0095 22.7356C73.0095 22.7359 73.0095 22.7362 73.0095 22.7364C73.0095 22.7367 73.0095 22.737 73.0095 22.7373C73.0095 22.7376 73.0095 22.7379 73.0095 22.7382C73.0095 22.7385 73.0095 22.7388 73.0095 22.739C73.0095 22.7393 73.0095 22.7396 73.0095 22.7399C73.0095 22.7402 73.0095 22.7405 73.0095 22.7408C73.0095 22.7411 73.0095 22.7414 73.0095 22.7417C73.0095 22.7419 73.0095 22.7422 73.0095 22.7425C73.0095 22.7428 73.0095 22.7431 73.0095 22.7434C73.0095 22.7437 73.0095 22.744 73.0095 22.7443C73.0095 22.7446 73.0095 22.7448 73.0095 22.7451C73.0095 22.7454 73.0095 22.7457 73.0095 22.746C73.0095 22.7463 73.0095 22.7466 73.0095 22.7469C73.0095 22.7472 73.0095 22.7475 73.0095 22.7477C73.0095 22.748 73.0095 22.7483 73.0095 22.7486C73.0095 22.7489 73.0095 22.7492 73.0095 22.7495C73.0095 22.7498 73.0095 22.7501 73.0095 22.7504C73.0095 22.7507 73.0095 22.7509 73.0095 22.7512C73.0095 22.7515 73.0095 22.7518 73.0095 22.7521C73.0095 22.7524 73.0095 22.7527 73.0095 22.753C73.0095 22.7533 73.0095 22.7536 73.0095 22.7539C73.0095 22.7541 73.0095 22.7544 73.0095 22.7547C73.0095 22.755 73.0095 22.7553 73.0095 22.7556C73.0095 22.7559 73.0095 22.7562 73.0095 22.7565C73.0095 22.7568 73.0095 22.7571 73.0095 22.7573C73.0095 22.7576 73.0095 22.7579 73.0095 22.7582C73.0095 22.7585 73.0095 22.7588 73.0095 22.7591C73.0095 22.7594 73.0095 22.7597 73.0095 22.76C73.0095 22.7603 73.0095 22.7606 73.0095 22.7608C73.0095 22.7611 73.0095 22.7614 73.0095 22.7617C73.0095 22.762 73.0095 22.7623 73.0095 22.7626C73.0095 22.7629 73.0095 22.7632 73.0095 22.7635C73.0095 22.7638 73.0095 22.764 73.0095 22.7643C73.0095 22.7646 73.0095 22.7649 73.0095 22.7652C73.0095 22.7655 73.0095 22.7658 73.0095 22.7661C73.0095 22.7664 73.0095 22.7667 73.0095 22.767C73.0095 22.7673 73.0095 22.7676 73.0095 22.7678C73.0095 22.7681 73.0095 22.7684 73.0095 22.7687C73.0095 22.769 73.0095 22.7693 73.0095 22.7696C73.0095 22.7699 73.0095 22.7702 73.0095 22.7705C73.0095 22.7708 73.0095 22.7711 73.0095 22.7714C73.0095 22.7716 73.0095 22.7719 73.0095 22.7722C73.0095 22.7725 73.0095 22.7728 73.0095 22.7731C73.0095 22.7734 73.0095 22.7737 73.0095 22.774C73.0095 22.7743 73.0095 22.7746 73.0095 22.7749C73.0095 22.7752 73.0095 22.7754 73.0095 22.7757C73.0095 22.776 73.0095 22.7763 73.0095 22.7766C73.0095 22.7769 73.0095 22.7772 73.0095 22.7775C73.0095 22.7778 73.0095 22.7781 73.0095 22.7784C73.0095 22.7787 73.0095 22.779 73.0095 22.7793C73.0095 22.7796 73.0095 22.7798 73.0095 22.7801C73.0095 22.7804 73.0095 22.7807 73.0095 22.781C73.0095 22.7813 73.0095 22.7816 73.0095 22.7819C73.0095 22.7822 73.0095 22.7825 73.0095 22.7828C73.0095 22.7831 73.0095 22.7834 73.0095 22.7837C73.0095 22.784 73.0095 22.7842 73.0095 22.7845C73.0095 22.7848 73.0095 22.7851 73.0095 22.7854C73.0095 22.7857 73.0095 22.786 73.0095 22.7863C73.0095 22.7866 73.0095 22.7869 73.0095 22.7872C73.0095 22.7875 73.0095 22.7878 73.0095 22.7881C73.0095 22.7884 73.0095 22.7887 73.0095 22.7889C73.0095 22.7892 73.0095 22.7895 73.0095 22.7898C73.0095 22.7901 73.0095 22.7904 73.0095 22.7907C73.0095 22.791 73.0095 22.7913 73.0095 22.7916C73.0095 22.7919 73.0095 22.7922 73.0095 22.7925C73.0095 22.7928 73.0095 22.7931 73.0095 22.7934C73.0095 22.7937 73.0095 22.7939 73.0095 22.7942C73.0095 22.7945 73.0095 22.7948 73.0095 22.7951C73.0095 22.7954 73.0095 22.7957 73.0095 22.796C73.0095 22.7963 73.0095 22.7966 73.0095 22.7969C73.0095 22.7972 73.0095 22.7975 73.0095 22.7978C73.0095 22.7981 73.0095 22.7984 73.0095 22.7987C73.0095 22.799 73.0095 22.7992 73.0095 22.7995C73.0095 22.7998 73.0095 22.8001 73.0095 22.8004C73.0095 22.8007 73.0095 22.801 73.0095 22.8013C73.0095 22.8016 73.0095 22.8019 73.0095 22.8022C73.0095 22.8025 73.0095 22.8028 73.0095 22.8031C73.0095 22.8034 73.0095 22.8037 73.0095 22.804C73.0095 22.8043 73.0095 22.8046 73.0095 22.8049C73.0095 22.8052 73.0095 22.8054 73.0095 22.8057C73.0095 22.806 73.0095 22.8063 73.0095 22.8066C73.0095 22.8069 73.0095 22.8072 73.0095 22.8075C73.0095 22.8078 73.0095 22.8081 73.0095 22.8084C73.0095 22.8087 73.0095 22.809 73.0095 22.8093C73.0095 22.8096 73.0095 22.8099 73.0095 22.8102C73.0095 22.8105 73.0095 22.8108 73.0095 22.8111C73.0095 22.8114 73.0095 22.8117 73.0095 22.812C73.0095 22.8122 73.0095 22.8125 73.0095 22.8128C73.0095 22.8131 73.0095 22.8134 73.0095 22.8137C73.0095 22.814 73.0095 22.8143 73.0095 22.8146C73.0095 22.8149 73.0095 22.8152 73.0095 22.8155C73.0095 22.8158 73.0095 22.8161 73.0095 22.8164C73.0095 22.8167 73.0095 22.817 73.0095 22.8173C73.0095 22.8176 73.0095 22.8179 73.0095 22.8182C73.0095 22.8185 73.0095 22.8188 73.0095 22.8191C73.0095 22.8194 73.0095 22.8197 73.0095 22.82C73.0095 22.8202 73.0095 22.8205 73.0095 22.8208C73.0095 22.8211 73.0095 22.8214 73.0095 22.8217C73.0095 22.822 73.0095 22.8223 73.0095 22.8226C73.0095 22.8229 73.0095 22.8232 73.0095 22.8235C73.0095 22.8238 73.0095 22.8241 73.0095 22.8244C73.0095 22.8247 73.0095 22.825 73.0095 22.8253C73.0095 22.8256 73.0095 22.8259 73.0095 22.8262C73.0095 22.8265 73.0095 22.8268 73.0095 22.8271C73.0095 22.8274 73.0095 22.8277 73.0095 22.828C73.0095 22.8283 73.0095 22.8286 73.0095 22.8289C73.0095 22.8292 73.0095 22.8295 73.0095 22.8298C73.0095 22.8301 73.0095 22.8303 73.0095 22.8306C73.0095 22.8309 73.0095 22.8312 73.0095 22.8315C73.0095 22.8318 73.0095 22.8321 73.0095 22.8324C73.0095 22.8327 73.0095 22.833 73.0095 22.8333C73.0095 22.8336 73.0095 22.8339 73.0095 22.8342C73.0095 22.8345 73.0095 22.8348 73.0095 22.8351C73.0095 22.8354 73.0095 22.8357 73.0095 22.836C73.0095 22.8363 73.0095 22.8366 73.0095 22.8369C73.0095 22.8372 73.0095 22.8375 73.0095 22.8378C73.0095 22.8381 73.0095 22.8384 73.0095 22.8387C73.0095 22.839 73.0095 22.8393 73.0095 22.8396C73.0095 22.8399 73.0095 22.8402 73.0095 22.8405C73.0095 22.8408 73.0095 22.8411 73.0095 22.8414C73.0095 22.8417 73.0095 22.842 73.0095 22.8423C73.0095 22.8426 73.0095 22.8429 73.0095 22.8432C73.0095 22.8435 73.0095 22.8438 73.0095 22.8441C73.0095 22.8444 73.0095 22.8447 73.0095 22.845C73.0095 22.8453 73.0095 22.8456 73.0095 22.8459C73.0095 22.8462 73.0095 22.8465 73.0095 22.8468C73.0095 22.847 73.0095 22.8473 73.0095 22.8476C73.0095 22.8479 73.0095 22.8482 73.0095 22.8485C73.0095 22.8488 73.0095 22.8491 73.0095 22.8494C73.0095 22.8497 73.0095 22.85 73.0095 22.8503C73.0095 22.8506 73.0095 22.8509 73.0095 22.8512C73.0095 22.8515 73.0095 22.8518 73.0095 22.8521C73.0095 22.8524 73.0095 22.8527 73.0095 22.853C73.0095 22.8533 73.0095 22.8536 73.0095 22.8539C73.0095 22.8542 73.0095 22.8545 73.0095 22.8548C73.0095 22.8551 73.0095 22.8554 73.0095 22.8557C73.0095 22.856 73.0095 22.8563 73.0095 22.8566C73.0095 22.8569 73.0095 22.8572 73.0095 22.8575C73.0095 22.8578 73.0095 22.8581 73.0095 22.8584C73.0095 22.8587 73.0095 22.859 73.0095 22.8593C73.0095 22.8596 73.0095 22.8599 73.0095 22.8602C73.0095 22.8605 73.0095 22.8608 73.0095 22.8611C73.0095 22.8614 73.0095 22.8617 73.0095 22.862C73.0095 22.8623 73.0095 22.8626 73.0095 22.8629C73.0095 22.8632 73.0095 22.8635 73.0095 22.8638C73.0095 22.8641 73.0095 22.8644 73.0095 22.8647C73.0095 22.865 73.0095 22.8653 73.0095 22.8656C73.0095 22.8659 73.0095 22.8662 73.0095 22.8665C73.0095 22.8668 73.0095 22.8671 73.0095 22.8674C73.0095 22.8677 73.0095 22.868 73.0095 22.8683C73.0095 22.8686 73.0095 22.8689 73.0095 22.8692C73.0095 22.8695 73.0095 22.8698 73.0095 22.8701C73.0095 22.8704 73.0095 22.8707 73.0095 22.871C73.0095 22.8713 73.0095 22.8716 73.0095 22.8719C73.0095 22.8723 73.0095 22.8726 73.0095 22.8729C73.0095 22.8732 73.0095 22.8735 73.0095 22.8738C73.0095 22.8741 73.0095 22.8744 73.0095 22.8747C73.0095 22.875 73.0095 22.8753 73.0095 22.8756C73.0095 22.8759 73.0095 22.8762 73.0095 22.8765C73.0095 22.8768 73.0095 22.8771 73.0095 22.8774C73.0095 22.8777 73.0095 22.878 73.0095 22.8783C73.0095 22.8786 73.0095 22.8789 73.0095 22.8792C73.0095 22.8795 73.0095 22.8798 73.0095 22.8801C73.0095 22.8804 73.0095 22.8807 73.0095 22.881C73.0095 22.8813 73.0095 22.8816 73.0095 22.8819C73.0095 22.8822 73.0095 22.8825 73.0095 22.8828C73.0095 22.8831 73.0095 22.8834 73.0095 22.8837C73.0095 22.884 73.0095 22.8843 73.0095 22.8846C73.0095 22.8849 73.0095 22.8852 73.0095 22.8855C73.0095 22.8858 73.0095 22.8861 73.0095 22.8864C73.0095 22.8867 73.0095 22.887 73.0095 22.8873C73.0095 22.8876 73.0095 22.8879 73.0095 22.8882C73.0095 22.8885 73.0095 22.8888 73.0095 22.8892C73.0095 22.8895 73.0095 22.8898 73.0095 22.8901C73.0095 22.8904 73.0095 22.8907 73.0095 22.891C73.0095 22.8913 73.0095 22.8916 73.0095 22.8919C73.0095 22.8922 73.0095 22.8925 73.0095 22.8928C73.0095 22.8931 73.0095 22.8934 73.0095 22.8937C73.0095 22.894 73.0095 22.8943 73.0095 22.8946C73.0095 22.8949 73.0095 22.8952 73.0095 22.8955C73.0095 22.8958 73.0095 22.8961 73.0095 22.8964C73.0095 22.8967 73.0095 22.897 73.0095 22.8973C73.0095 22.8976 73.0095 22.8979 73.0095 22.8982C73.0095 22.8985 73.0095 22.8988 73.0095 22.8991C73.0095 22.8995 73.0095 22.8998 73.0095 22.9001C73.0095 22.9004 73.0095 22.9007 73.0095 22.901C73.0095 22.9013 73.0095 22.9016 73.0095 22.9019C73.0095 22.9022 73.0095 22.9025 73.0095 22.9028C73.0095 22.9031 73.0095 22.9034 73.0095 22.9037C73.0095 22.904 73.0095 22.9043 73.0095 22.9046C73.0095 22.9049 73.0095 22.9052 73.0095 22.9055C73.0095 22.9058 73.0095 22.9061 73.0095 22.9064C73.0095 22.9067 73.0095 22.907 73.0095 22.9073C73.0095 22.9077 73.0095 22.908 73.0095 22.9083C73.0095 22.9086 73.0095 22.9089 73.0095 22.9092C73.0095 22.9095 73.0095 22.9098 73.0095 22.9101C73.0095 22.9104 73.0095 22.9107 73.0095 22.911C73.0095 22.9113 73.0095 22.9116 73.0095 22.9119C73.0095 22.9122 73.0095 22.9125 73.0095 22.9128C73.0095 22.9131 73.0095 22.9134 73.0095 22.9137C73.0095 22.914 73.0095 22.9143 73.0095 22.9147C73.0095 22.915 73.0095 22.9153 73.0095 22.9156C73.0095 22.9159 73.0095 22.9162 73.0095 22.9165C73.0095 22.9168 73.0095 22.9171 73.0095 22.9174C73.0095 22.9177 73.0095 22.918 73.0095 22.9183C73.0095 22.9186 73.0095 22.9189 73.0095 22.9192C73.0095 22.9195 73.0095 22.9198 73.0095 22.9201C73.0095 22.9204 73.0095 22.9207 73.0095 22.9211C73.0095 22.9214 73.0095 22.9217 73.0095 22.922C73.0095 22.9223 73.0095 22.9226 73.0095 22.9229C73.0095 22.9232 73.0095 22.9235 73.0095 22.9238C73.0095 22.9241 73.0095 22.9244 73.0095 22.9247C73.0095 22.925 73.0095 22.9253 73.0095 22.9256C73.0095 22.9259 73.0095 22.9262 73.0095 22.9266C73.0095 22.9269 73.0095 22.9272 73.0095 22.9275C73.0095 22.9278 73.0095 22.9281 73.0095 22.9284C73.0095 22.9287 73.0095 22.929 73.0095 22.9293C73.0095 22.9296 73.0095 22.9299 73.0095 22.9302C73.0095 22.9305 73.0095 22.9308 73.0095 22.9311C73.0095 22.9314 73.0095 22.9318 73.0095 22.9321C73.0095 22.9324 73.0095 22.9327 73.0095 22.933C73.0095 22.9333 73.0095 22.9336 73.0095 22.9339C73.0095 22.9342 73.0095 22.9345 73.0095 22.9348C73.0095 22.9351 73.0095 22.9354 73.0095 22.9357C73.0095 22.936 73.0095 22.9363 73.0095 22.9367C73.0095 22.937 73.0095 22.9373 73.0095 22.9376C73.0095 22.9379 73.0095 22.9382 73.0095 22.9385C73.0095 22.9388 73.0095 22.9391 73.0095 22.9394C73.0095 22.9397 73.0095 22.94 73.0095 22.9403C73.0095 22.9406 73.0095 22.9409 73.0095 22.9413C73.0095 22.9416 73.0095 22.9419 73.0095 22.9422C73.0095 22.9425 73.0095 22.9428 73.0095 22.9431C73.0095 22.9434 73.0095 22.9437 73.0095 22.944C73.0095 22.9443 73.0095 22.9446 73.0095 22.9449C73.0095 22.9452 73.0095 22.9455 73.0095 22.9459C73.0095 22.9462 73.0095 22.9465 73.0095 22.9468C73.0095 22.9471 73.0095 22.9474 73.0095 22.9477C73.0095 22.948 73.0095 22.9483 73.0095 22.9486C73.0095 22.9489 73.0095 22.9492 73.0095 22.9495C73.0095 22.9499 73.0095 22.9502 73.0095 22.9505C73.0095 22.9508 73.0095 22.9511 73.0095 22.9514C73.0095 22.9517 73.0095 22.952 73.0095 22.9523C73.0095 22.9526 73.0095 22.9529 73.0095 22.9532C73.0095 22.9535 73.0095 22.9539 73.0095 22.9542C73.0095 22.9545 73.0095 22.9548 73.0095 22.9551C73.0095 22.9554 73.0095 22.9557 73.0095 22.956C73.0095 22.9563 73.0095 22.9566 73.0095 22.9569C73.0095 22.9572 73.0095 22.9576 73.0095 22.9579C73.0095 22.9582 73.0095 22.9585 73.0095 22.9588C73.0095 22.9591 73.0095 22.9594 73.0095 22.9597C73.0095 22.96 73.0095 22.9603 73.0095 22.9606C73.0095 22.9609 73.0095 22.9613 73.0095 22.9616C73.0095 22.9619 73.0095 22.9622 73.0095 22.9625C73.0095 22.9628 73.0095 22.9631 73.0095 22.9634C73.0095 22.9637 73.0095 22.964 73.0095 22.9643C73.0095 22.9646 73.0095 22.965 73.0095 22.9653C73.0095 22.9656 73.0095 22.9659 73.0095 22.9662C73.0095 22.9665 73.0095 22.9668 73.0095 22.9671C73.0095 22.9674 73.0095 22.9677 73.0095 22.968C73.0095 22.9684 73.0095 22.9687 73.0095 22.969C73.0095 22.9693 73.0095 22.9696 73.0095 22.9699C73.0095 22.9702 73.0095 22.9705 73.0095 22.9708C73.0095 22.9711 73.0095 22.9714 73.0095 22.9718C73.0095 22.9721 73.0095 22.9724 73.0095 22.9727C73.0095 22.973 73.0095 22.9733 73.0095 22.9736C73.0095 22.9739 73.0095 22.9742 73.0095 22.9745C73.0095 22.9748 73.0095 22.9752 73.0095 22.9755C73.0095 22.9758 73.0095 22.9761 73.0095 22.9764C73.0095 22.9767 73.0095 22.977 73.0095 22.9773C73.0095 22.9776 73.0095 22.9779 73.0095 22.9783C73.0095 22.9786 73.0095 22.9789 73.0095 22.9792C73.0095 22.9795 73.0095 22.9798 73.0095 22.9801C73.0095 22.9804 73.0095 22.9807 73.0095 22.981C73.0095 22.9814 73.0095 22.9817 73.0095 22.982C73.0095 22.9823 73.0095 22.9826 73.0095 22.9829C73.0095 22.9832 73.0095 22.9835 73.0095 22.9838C73.0095 22.9841 73.0095 22.9845 73.0095 22.9848C73.0095 22.9851 73.0095 22.9854 73.0095 22.9857C73.0095 22.986 73.0095 22.9863 73.0095 22.9866C73.0095 22.9869 73.0095 22.9873 73.0095 22.9876C73.0095 22.9879 73.0095 22.9882 73.0095 22.9885C73.0095 22.9888 73.0095 22.9891 73.0095 22.9894C73.0095 22.9897 73.0095 22.9901 73.0095 22.9904C73.0095 22.9907 73.0095 22.991 73.0095 22.9913C73.0095 22.9916 73.0095 22.9919 73.0095 22.9922C73.0095 22.9925 73.0095 22.9929 73.0095 22.9932C73.0095 22.9935 73.0095 22.9938 73.0095 22.9941C73.0095 22.9944 73.0095 22.9947 73.0095 22.995C73.0095 22.9953 73.0095 22.9957 73.0095 22.996C73.0095 22.9963 73.0095 22.9966 73.0095 22.9969C73.0095 22.9972 73.0095 22.9975 73.0095 22.9978C73.0095 22.9981 73.0095 22.9985 73.0095 22.9988C73.0095 22.9991 73.0095 22.9994 73.0095 22.9997C73.0095 23 73.0095 23.0003 73.0095 23.0006C73.0095 23.0009 73.0095 23.0013 73.0095 23.0016C73.0095 23.0019 73.0095 23.0022 73.0095 23.0025C73.0095 23.0028 73.0095 23.0031 73.0095 23.0034C73.0095 23.0038 73.0095 23.0041 73.0095 23.0044C73.0095 23.0047 73.0095 23.005 73.0095 23.0053C73.0095 23.0056 73.0095 23.0059 73.0095 23.0063C73.0095 23.0066 73.0095 23.0069 73.0095 23.0072C73.0095 23.0075 73.0095 23.0078 73.0095 23.0081C73.0095 23.0084 73.0095 23.0087 73.0095 23.0091C73.0095 23.0094 73.0095 23.0097 73.0095 23.01H73.6095C73.6095 23.0097 73.6095 23.0094 73.6095 23.0091C73.6095 23.0087 73.6095 23.0084 73.6095 23.0081C73.6095 23.0078 73.6095 23.0075 73.6095 23.0072C73.6095 23.0069 73.6095 23.0066 73.6095 23.0063C73.6095 23.0059 73.6095 23.0056 73.6095 23.0053C73.6095 23.005 73.6095 23.0047 73.6095 23.0044C73.6095 23.0041 73.6095 23.0038 73.6095 23.0034C73.6095 23.0031 73.6095 23.0028 73.6095 23.0025C73.6095 23.0022 73.6095 23.0019 73.6095 23.0016C73.6095 23.0013 73.6095 23.0009 73.6095 23.0006C73.6095 23.0003 73.6095 23 73.6095 22.9997C73.6095 22.9994 73.6095 22.9991 73.6095 22.9988C73.6095 22.9985 73.6095 22.9981 73.6095 22.9978C73.6095 22.9975 73.6095 22.9972 73.6095 22.9969C73.6095 22.9966 73.6095 22.9963 73.6095 22.996C73.6095 22.9957 73.6095 22.9953 73.6095 22.995C73.6095 22.9947 73.6095 22.9944 73.6095 22.9941C73.6095 22.9938 73.6095 22.9935 73.6095 22.9932C73.6095 22.9929 73.6095 22.9925 73.6095 22.9922C73.6095 22.9919 73.6095 22.9916 73.6095 22.9913C73.6095 22.991 73.6095 22.9907 73.6095 22.9904C73.6095 22.9901 73.6095 22.9897 73.6095 22.9894C73.6095 22.9891 73.6095 22.9888 73.6095 22.9885C73.6095 22.9882 73.6095 22.9879 73.6095 22.9876C73.6095 22.9873 73.6095 22.9869 73.6095 22.9866C73.6095 22.9863 73.6095 22.986 73.6095 22.9857C73.6095 22.9854 73.6095 22.9851 73.6095 22.9848C73.6095 22.9845 73.6095 22.9841 73.6095 22.9838C73.6095 22.9835 73.6095 22.9832 73.6095 22.9829C73.6095 22.9826 73.6095 22.9823 73.6095 22.982C73.6095 22.9817 73.6095 22.9814 73.6095 22.981C73.6095 22.9807 73.6095 22.9804 73.6095 22.9801C73.6095 22.9798 73.6095 22.9795 73.6095 22.9792C73.6095 22.9789 73.6095 22.9786 73.6095 22.9783C73.6095 22.9779 73.6095 22.9776 73.6095 22.9773C73.6095 22.977 73.6095 22.9767 73.6095 22.9764C73.6095 22.9761 73.6095 22.9758 73.6095 22.9755C73.6095 22.9752 73.6095 22.9748 73.6095 22.9745C73.6095 22.9742 73.6095 22.9739 73.6095 22.9736C73.6095 22.9733 73.6095 22.973 73.6095 22.9727C73.6095 22.9724 73.6095 22.9721 73.6095 22.9718C73.6095 22.9714 73.6095 22.9711 73.6095 22.9708C73.6095 22.9705 73.6095 22.9702 73.6095 22.9699C73.6095 22.9696 73.6095 22.9693 73.6095 22.969C73.6095 22.9687 73.6095 22.9684 73.6095 22.968C73.6095 22.9677 73.6095 22.9674 73.6095 22.9671C73.6095 22.9668 73.6095 22.9665 73.6095 22.9662C73.6095 22.9659 73.6095 22.9656 73.6095 22.9653C73.6095 22.965 73.6095 22.9646 73.6095 22.9643C73.6095 22.964 73.6095 22.9637 73.6095 22.9634C73.6095 22.9631 73.6095 22.9628 73.6095 22.9625C73.6095 22.9622 73.6095 22.9619 73.6095 22.9616C73.6095 22.9613 73.6095 22.9609 73.6095 22.9606C73.6095 22.9603 73.6095 22.96 73.6095 22.9597C73.6095 22.9594 73.6095 22.9591 73.6095 22.9588C73.6095 22.9585 73.6095 22.9582 73.6095 22.9579C73.6095 22.9576 73.6095 22.9572 73.6095 22.9569C73.6095 22.9566 73.6095 22.9563 73.6095 22.956C73.6095 22.9557 73.6095 22.9554 73.6095 22.9551C73.6095 22.9548 73.6095 22.9545 73.6095 22.9542C73.6095 22.9539 73.6095 22.9535 73.6095 22.9532C73.6095 22.9529 73.6095 22.9526 73.6095 22.9523C73.6095 22.952 73.6095 22.9517 73.6095 22.9514C73.6095 22.9511 73.6095 22.9508 73.6095 22.9505C73.6095 22.9502 73.6095 22.9499 73.6095 22.9495C73.6095 22.9492 73.6095 22.9489 73.6095 22.9486C73.6095 22.9483 73.6095 22.948 73.6095 22.9477C73.6095 22.9474 73.6095 22.9471 73.6095 22.9468C73.6095 22.9465 73.6095 22.9462 73.6095 22.9459C73.6095 22.9455 73.6095 22.9452 73.6095 22.9449C73.6095 22.9446 73.6095 22.9443 73.6095 22.944C73.6095 22.9437 73.6095 22.9434 73.6095 22.9431C73.6095 22.9428 73.6095 22.9425 73.6095 22.9422C73.6095 22.9419 73.6095 22.9416 73.6095 22.9413C73.6095 22.9409 73.6095 22.9406 73.6095 22.9403C73.6095 22.94 73.6095 22.9397 73.6095 22.9394C73.6095 22.9391 73.6095 22.9388 73.6095 22.9385C73.6095 22.9382 73.6095 22.9379 73.6095 22.9376C73.6095 22.9373 73.6095 22.937 73.6095 22.9367C73.6095 22.9363 73.6095 22.936 73.6095 22.9357C73.6095 22.9354 73.6095 22.9351 73.6095 22.9348C73.6095 22.9345 73.6095 22.9342 73.6095 22.9339C73.6095 22.9336 73.6095 22.9333 73.6095 22.933C73.6095 22.9327 73.6095 22.9324 73.6095 22.9321C73.6095 22.9318 73.6095 22.9314 73.6095 22.9311C73.6095 22.9308 73.6095 22.9305 73.6095 22.9302C73.6095 22.9299 73.6095 22.9296 73.6095 22.9293C73.6095 22.929 73.6095 22.9287 73.6095 22.9284C73.6095 22.9281 73.6095 22.9278 73.6095 22.9275C73.6095 22.9272 73.6095 22.9269 73.6095 22.9266C73.6095 22.9262 73.6095 22.9259 73.6095 22.9256C73.6095 22.9253 73.6095 22.925 73.6095 22.9247C73.6095 22.9244 73.6095 22.9241 73.6095 22.9238C73.6095 22.9235 73.6095 22.9232 73.6095 22.9229C73.6095 22.9226 73.6095 22.9223 73.6095 22.922C73.6095 22.9217 73.6095 22.9214 73.6095 22.9211C73.6095 22.9207 73.6095 22.9204 73.6095 22.9201C73.6095 22.9198 73.6095 22.9195 73.6095 22.9192C73.6095 22.9189 73.6095 22.9186 73.6095 22.9183C73.6095 22.918 73.6095 22.9177 73.6095 22.9174C73.6095 22.9171 73.6095 22.9168 73.6095 22.9165C73.6095 22.9162 73.6095 22.9159 73.6095 22.9156C73.6095 22.9153 73.6095 22.915 73.6095 22.9147C73.6095 22.9143 73.6095 22.914 73.6095 22.9137C73.6095 22.9134 73.6095 22.9131 73.6095 22.9128C73.6095 22.9125 73.6095 22.9122 73.6095 22.9119C73.6095 22.9116 73.6095 22.9113 73.6095 22.911C73.6095 22.9107 73.6095 22.9104 73.6095 22.9101C73.6095 22.9098 73.6095 22.9095 73.6095 22.9092C73.6095 22.9089 73.6095 22.9086 73.6095 22.9083C73.6095 22.908 73.6095 22.9077 73.6095 22.9073C73.6095 22.907 73.6095 22.9067 73.6095 22.9064C73.6095 22.9061 73.6095 22.9058 73.6095 22.9055C73.6095 22.9052 73.6095 22.9049 73.6095 22.9046C73.6095 22.9043 73.6095 22.904 73.6095 22.9037C73.6095 22.9034 73.6095 22.9031 73.6095 22.9028C73.6095 22.9025 73.6095 22.9022 73.6095 22.9019C73.6095 22.9016 73.6095 22.9013 73.6095 22.901C73.6095 22.9007 73.6095 22.9004 73.6095 22.9001C73.6095 22.8998 73.6095 22.8995 73.6095 22.8991C73.6095 22.8988 73.6095 22.8985 73.6095 22.8982C73.6095 22.8979 73.6095 22.8976 73.6095 22.8973C73.6095 22.897 73.6095 22.8967 73.6095 22.8964C73.6095 22.8961 73.6095 22.8958 73.6095 22.8955C73.6095 22.8952 73.6095 22.8949 73.6095 22.8946C73.6095 22.8943 73.6095 22.894 73.6095 22.8937C73.6095 22.8934 73.6095 22.8931 73.6095 22.8928C73.6095 22.8925 73.6095 22.8922 73.6095 22.8919C73.6095 22.8916 73.6095 22.8913 73.6095 22.891C73.6095 22.8907 73.6095 22.8904 73.6095 22.8901C73.6095 22.8898 73.6095 22.8895 73.6095 22.8892C73.6095 22.8888 73.6095 22.8885 73.6095 22.8882C73.6095 22.8879 73.6095 22.8876 73.6095 22.8873C73.6095 22.887 73.6095 22.8867 73.6095 22.8864C73.6095 22.8861 73.6095 22.8858 73.6095 22.8855C73.6095 22.8852 73.6095 22.8849 73.6095 22.8846C73.6095 22.8843 73.6095 22.884 73.6095 22.8837C73.6095 22.8834 73.6095 22.8831 73.6095 22.8828C73.6095 22.8825 73.6095 22.8822 73.6095 22.8819C73.6095 22.8816 73.6095 22.8813 73.6095 22.881C73.6095 22.8807 73.6095 22.8804 73.6095 22.8801C73.6095 22.8798 73.6095 22.8795 73.6095 22.8792C73.6095 22.8789 73.6095 22.8786 73.6095 22.8783C73.6095 22.878 73.6095 22.8777 73.6095 22.8774C73.6095 22.8771 73.6095 22.8768 73.6095 22.8765C73.6095 22.8762 73.6095 22.8759 73.6095 22.8756C73.6095 22.8753 73.6095 22.875 73.6095 22.8747C73.6095 22.8744 73.6095 22.8741 73.6095 22.8738C73.6095 22.8735 73.6095 22.8732 73.6095 22.8729C73.6095 22.8726 73.6095 22.8723 73.6095 22.8719C73.6095 22.8716 73.6095 22.8713 73.6095 22.871C73.6095 22.8707 73.6095 22.8704 73.6095 22.8701C73.6095 22.8698 73.6095 22.8695 73.6095 22.8692C73.6095 22.8689 73.6095 22.8686 73.6095 22.8683C73.6095 22.868 73.6095 22.8677 73.6095 22.8674C73.6095 22.8671 73.6095 22.8668 73.6095 22.8665C73.6095 22.8662 73.6095 22.8659 73.6095 22.8656C73.6095 22.8653 73.6095 22.865 73.6095 22.8647C73.6095 22.8644 73.6095 22.8641 73.6095 22.8638C73.6095 22.8635 73.6095 22.8632 73.6095 22.8629C73.6095 22.8626 73.6095 22.8623 73.6095 22.862C73.6095 22.8617 73.6095 22.8614 73.6095 22.8611C73.6095 22.8608 73.6095 22.8605 73.6095 22.8602C73.6095 22.8599 73.6095 22.8596 73.6095 22.8593C73.6095 22.859 73.6095 22.8587 73.6095 22.8584C73.6095 22.8581 73.6095 22.8578 73.6095 22.8575C73.6095 22.8572 73.6095 22.8569 73.6095 22.8566C73.6095 22.8563 73.6095 22.856 73.6095 22.8557C73.6095 22.8554 73.6095 22.8551 73.6095 22.8548C73.6095 22.8545 73.6095 22.8542 73.6095 22.8539C73.6095 22.8536 73.6095 22.8533 73.6095 22.853C73.6095 22.8527 73.6095 22.8524 73.6095 22.8521C73.6095 22.8518 73.6095 22.8515 73.6095 22.8512C73.6095 22.8509 73.6095 22.8506 73.6095 22.8503C73.6095 22.85 73.6095 22.8497 73.6095 22.8494C73.6095 22.8491 73.6095 22.8488 73.6095 22.8485C73.6095 22.8482 73.6095 22.8479 73.6095 22.8476C73.6095 22.8473 73.6095 22.847 73.6095 22.8468C73.6095 22.8465 73.6095 22.8462 73.6095 22.8459C73.6095 22.8456 73.6095 22.8453 73.6095 22.845C73.6095 22.8447 73.6095 22.8444 73.6095 22.8441C73.6095 22.8438 73.6095 22.8435 73.6095 22.8432C73.6095 22.8429 73.6095 22.8426 73.6095 22.8423C73.6095 22.842 73.6095 22.8417 73.6095 22.8414C73.6095 22.8411 73.6095 22.8408 73.6095 22.8405C73.6095 22.8402 73.6095 22.8399 73.6095 22.8396C73.6095 22.8393 73.6095 22.839 73.6095 22.8387C73.6095 22.8384 73.6095 22.8381 73.6095 22.8378C73.6095 22.8375 73.6095 22.8372 73.6095 22.8369C73.6095 22.8366 73.6095 22.8363 73.6095 22.836C73.6095 22.8357 73.6095 22.8354 73.6095 22.8351C73.6095 22.8348 73.6095 22.8345 73.6095 22.8342C73.6095 22.8339 73.6095 22.8336 73.6095 22.8333C73.6095 22.833 73.6095 22.8327 73.6095 22.8324C73.6095 22.8321 73.6095 22.8318 73.6095 22.8315C73.6095 22.8312 73.6095 22.8309 73.6095 22.8306C73.6095 22.8303 73.6095 22.8301 73.6095 22.8298C73.6095 22.8295 73.6095 22.8292 73.6095 22.8289C73.6095 22.8286 73.6095 22.8283 73.6095 22.828C73.6095 22.8277 73.6095 22.8274 73.6095 22.8271C73.6095 22.8268 73.6095 22.8265 73.6095 22.8262C73.6095 22.8259 73.6095 22.8256 73.6095 22.8253C73.6095 22.825 73.6095 22.8247 73.6095 22.8244C73.6095 22.8241 73.6095 22.8238 73.6095 22.8235C73.6095 22.8232 73.6095 22.8229 73.6095 22.8226C73.6095 22.8223 73.6095 22.822 73.6095 22.8217C73.6095 22.8214 73.6095 22.8211 73.6095 22.8208C73.6095 22.8205 73.6095 22.8202 73.6095 22.82C73.6095 22.8197 73.6095 22.8194 73.6095 22.8191C73.6095 22.8188 73.6095 22.8185 73.6095 22.8182C73.6095 22.8179 73.6095 22.8176 73.6095 22.8173C73.6095 22.817 73.6095 22.8167 73.6095 22.8164C73.6095 22.8161 73.6095 22.8158 73.6095 22.8155C73.6095 22.8152 73.6095 22.8149 73.6095 22.8146C73.6095 22.8143 73.6095 22.814 73.6095 22.8137C73.6095 22.8134 73.6095 22.8131 73.6095 22.8128C73.6095 22.8125 73.6095 22.8122 73.6095 22.812C73.6095 22.8117 73.6095 22.8114 73.6095 22.8111C73.6095 22.8108 73.6095 22.8105 73.6095 22.8102C73.6095 22.8099 73.6095 22.8096 73.6095 22.8093C73.6095 22.809 73.6095 22.8087 73.6095 22.8084C73.6095 22.8081 73.6095 22.8078 73.6095 22.8075C73.6095 22.8072 73.6095 22.8069 73.6095 22.8066C73.6095 22.8063 73.6095 22.806 73.6095 22.8057C73.6095 22.8054 73.6095 22.8052 73.6095 22.8049C73.6095 22.8046 73.6095 22.8043 73.6095 22.804C73.6095 22.8037 73.6095 22.8034 73.6095 22.8031C73.6095 22.8028 73.6095 22.8025 73.6095 22.8022C73.6095 22.8019 73.6095 22.8016 73.6095 22.8013C73.6095 22.801 73.6095 22.8007 73.6095 22.8004C73.6095 22.8001 73.6095 22.7998 73.6095 22.7995C73.6095 22.7992 73.6095 22.799 73.6095 22.7987C73.6095 22.7984 73.6095 22.7981 73.6095 22.7978C73.6095 22.7975 73.6095 22.7972 73.6095 22.7969C73.6095 22.7966 73.6095 22.7963 73.6095 22.796C73.6095 22.7957 73.6095 22.7954 73.6095 22.7951C73.6095 22.7948 73.6095 22.7945 73.6095 22.7942C73.6095 22.7939 73.6095 22.7937 73.6095 22.7934C73.6095 22.7931 73.6095 22.7928 73.6095 22.7925C73.6095 22.7922 73.6095 22.7919 73.6095 22.7916C73.6095 22.7913 73.6095 22.791 73.6095 22.7907C73.6095 22.7904 73.6095 22.7901 73.6095 22.7898C73.6095 22.7895 73.6095 22.7892 73.6095 22.7889C73.6095 22.7887 73.6095 22.7884 73.6095 22.7881C73.6095 22.7878 73.6095 22.7875 73.6095 22.7872C73.6095 22.7869 73.6095 22.7866 73.6095 22.7863C73.6095 22.786 73.6095 22.7857 73.6095 22.7854C73.6095 22.7851 73.6095 22.7848 73.6095 22.7845C73.6095 22.7842 73.6095 22.784 73.6095 22.7837C73.6095 22.7834 73.6095 22.7831 73.6095 22.7828C73.6095 22.7825 73.6095 22.7822 73.6095 22.7819C73.6095 22.7816 73.6095 22.7813 73.6095 22.781C73.6095 22.7807 73.6095 22.7804 73.6095 22.7801C73.6095 22.7798 73.6095 22.7796 73.6095 22.7793C73.6095 22.779 73.6095 22.7787 73.6095 22.7784C73.6095 22.7781 73.6095 22.7778 73.6095 22.7775C73.6095 22.7772 73.6095 22.7769 73.6095 22.7766C73.6095 22.7763 73.6095 22.776 73.6095 22.7757C73.6095 22.7754 73.6095 22.7752 73.6095 22.7749C73.6095 22.7746 73.6095 22.7743 73.6095 22.774C73.6095 22.7737 73.6095 22.7734 73.6095 22.7731C73.6095 22.7728 73.6095 22.7725 73.6095 22.7722C73.6095 22.7719 73.6095 22.7716 73.6095 22.7714C73.6095 22.7711 73.6095 22.7708 73.6095 22.7705C73.6095 22.7702 73.6095 22.7699 73.6095 22.7696C73.6095 22.7693 73.6095 22.769 73.6095 22.7687C73.6095 22.7684 73.6095 22.7681 73.6095 22.7678C73.6095 22.7676 73.6095 22.7673 73.6095 22.767C73.6095 22.7667 73.6095 22.7664 73.6095 22.7661C73.6095 22.7658 73.6095 22.7655 73.6095 22.7652C73.6095 22.7649 73.6095 22.7646 73.6095 22.7643C73.6095 22.764 73.6095 22.7638 73.6095 22.7635C73.6095 22.7632 73.6095 22.7629 73.6095 22.7626C73.6095 22.7623 73.6095 22.762 73.6095 22.7617C73.6095 22.7614 73.6095 22.7611 73.6095 22.7608C73.6095 22.7606 73.6095 22.7603 73.6095 22.76C73.6095 22.7597 73.6095 22.7594 73.6095 22.7591C73.6095 22.7588 73.6095 22.7585 73.6095 22.7582C73.6095 22.7579 73.6095 22.7576 73.6095 22.7573C73.6095 22.7571 73.6095 22.7568 73.6095 22.7565C73.6095 22.7562 73.6095 22.7559 73.6095 22.7556C73.6095 22.7553 73.6095 22.755 73.6095 22.7547C73.6095 22.7544 73.6095 22.7541 73.6095 22.7539C73.6095 22.7536 73.6095 22.7533 73.6095 22.753C73.6095 22.7527 73.6095 22.7524 73.6095 22.7521C73.6095 22.7518 73.6095 22.7515 73.6095 22.7512C73.6095 22.7509 73.6095 22.7507 73.6095 22.7504C73.6095 22.7501 73.6095 22.7498 73.6095 22.7495C73.6095 22.7492 73.6095 22.7489 73.6095 22.7486C73.6095 22.7483 73.6095 22.748 73.6095 22.7477C73.6095 22.7475 73.6095 22.7472 73.6095 22.7469C73.6095 22.7466 73.6095 22.7463 73.6095 22.746C73.6095 22.7457 73.6095 22.7454 73.6095 22.7451C73.6095 22.7448 73.6095 22.7446 73.6095 22.7443C73.6095 22.744 73.6095 22.7437 73.6095 22.7434C73.6095 22.7431 73.6095 22.7428 73.6095 22.7425C73.6095 22.7422 73.6095 22.7419 73.6095 22.7417C73.6095 22.7414 73.6095 22.7411 73.6095 22.7408C73.6095 22.7405 73.6095 22.7402 73.6095 22.7399C73.6095 22.7396 73.6095 22.7393 73.6095 22.739C73.6095 22.7388 73.6095 22.7385 73.6095 22.7382C73.6095 22.7379 73.6095 22.7376 73.6095 22.7373C73.6095 22.737 73.6095 22.7367 73.6095 22.7364C73.6095 22.7362 73.6095 22.7359 73.6095 22.7356C73.6095 22.7353 73.6095 22.735 73.6095 22.7347C73.6095 22.7344 73.6095 22.7341 73.6095 22.7338C73.6095 22.7336 73.6095 22.7333 73.6095 22.733C73.6095 22.7327 73.6095 22.7324 73.6095 22.7321C73.6095 22.7318 73.6095 22.7315 73.6095 22.7312C73.6095 22.731 73.6095 22.7307 73.6095 22.7304C73.6095 22.7301 73.6095 22.7298 73.6095 22.7295C73.6095 22.7292 73.6095 22.7289 73.6095 22.7286C73.6095 22.7284 73.6095 22.7281 73.6095 22.7278C73.6095 22.7275 73.6095 22.7272 73.6095 22.7269C73.6095 22.7266 73.6095 22.7263 73.6095 22.726C73.6095 22.7258 73.6095 22.7255 73.6095 22.7252C73.6095 22.7249 73.6095 22.7246 73.6095 22.7243C73.6095 22.724 73.6095 22.7237 73.6095 22.7234C73.6095 22.7232 73.6095 22.7229 73.6095 22.7226C73.6095 22.7223 73.6095 22.722 73.6095 22.7217C73.6095 22.7214 73.6095 22.7211 73.6095 22.7209C73.6095 22.7206 73.6095 22.7203 73.6095 22.72C73.6095 22.7197 73.6095 22.7194 73.6095 22.7191C73.6095 22.7188 73.6095 22.7186 73.6095 22.7183C73.6095 22.718 73.6095 22.7177 73.6095 22.7174C73.6095 22.7171 73.6095 22.7168 73.6095 22.7165C73.6095 22.7162 73.6095 22.716 73.6095 22.7157C73.6095 22.7154 73.6095 22.7151 73.6095 22.7148C73.6095 22.7145 73.6095 22.7142 73.6095 22.7139C73.6095 22.7137 73.6095 22.7134 73.6095 22.7131C73.6095 22.7128 73.6095 22.7125 73.6095 22.7122C73.6095 22.7119 73.6095 22.7117 73.6095 22.7114C73.6095 22.7111 73.6095 22.7108 73.6095 22.7105C73.6095 22.7102 73.6095 22.7099 73.6095 22.7096C73.6095 22.7094 73.6095 22.7091 73.6095 22.7088C73.6095 22.7085 73.6095 22.7082 73.6095 22.7079C73.6095 22.7076 73.6095 22.7073 73.6095 22.7071C73.6095 22.7068 73.6095 22.7065 73.6095 22.7062C73.6095 22.7059 73.6095 22.7056 73.6095 22.7053C73.6095 22.7051 73.6095 22.7048 73.6095 22.7045C73.6095 22.7042 73.6095 22.7039 73.6095 22.7036C73.6095 22.7033 73.6095 22.703 73.6095 22.7028C73.6095 22.7025 73.6095 22.7022 73.6095 22.7019C73.6095 22.7016 73.6095 22.7013 73.6095 22.701C73.6095 22.7008 73.6095 22.7005 73.6095 22.7002C73.6095 22.6999 73.6095 22.6996 73.6095 22.6993C73.6095 22.699 73.6095 22.6988 73.6095 22.6985C73.6095 22.6982 73.6095 22.6979 73.6095 22.6976C73.6095 22.6973 73.6095 22.697 73.6095 22.6968C73.6095 22.6965 73.6095 22.6962 73.6095 22.6959C73.6095 22.6956 73.6095 22.6953 73.6095 22.695C73.6095 22.6948 73.6095 22.6945 73.6095 22.6942C73.6095 22.6939 73.6095 22.6936 73.6095 22.6933C73.6095 22.693 73.6095 22.6928 73.6095 22.6925C73.6095 22.6922 73.6095 22.6919 73.6095 22.6916C73.6095 22.6913 73.6095 22.691 73.6095 22.6908C73.6095 22.6905 73.6095 22.6902 73.6095 22.6899C73.6095 22.6896 73.6095 22.6893 73.6095 22.689C73.6095 22.6888 73.6095 22.6885 73.6095 22.6882C73.6095 22.6879 73.6095 22.6876 73.6095 22.6873C73.6095 22.687 73.6095 22.6868 73.6095 22.6865C73.6095 22.6862 73.6095 22.6859 73.6095 22.6856C73.6095 22.6853 73.6095 22.6851 73.6095 22.6848C73.6095 22.6845 73.6095 22.6842 73.6095 22.6839C73.6095 22.6836 73.6095 22.6833 73.6095 22.6831C73.6095 22.6828 73.6095 22.6825 73.6095 22.6822C73.6095 22.6819 73.6095 22.6816 73.6095 22.6814C73.6095 22.6811 73.6095 22.6808 73.6095 22.6805C73.6095 22.6802 73.6095 22.6799 73.6095 22.6796C73.6095 22.6794 73.6095 22.6791 73.6095 22.6788C73.6095 22.6785 73.6095 22.6782 73.6095 22.6779C73.6095 22.6777 73.6095 22.6774 73.6095 22.6771C73.6095 22.6768 73.6095 22.6765 73.6095 22.6762C73.6095 22.676 73.6095 22.6757 73.6095 22.6754C73.6095 22.6751 73.6095 22.6748 73.6095 22.6745C73.6095 22.6742 73.6095 22.674 73.6095 22.6737C73.6095 22.6734 73.6095 22.6731 73.6095 22.6728C73.6095 22.6725 73.6095 22.6723 73.6095 22.672C73.6095 22.6717 73.6095 22.6714 73.6095 22.6711C73.6095 22.6708 73.6095 22.6706 73.6095 22.6703C73.6095 22.67 73.6095 22.6697 73.6095 22.6694C73.6095 22.6691 73.6095 22.6689 73.6095 22.6686C73.6095 22.6683 73.6095 22.668 73.6095 22.6677C73.6095 22.6674 73.6095 22.6672 73.6095 22.6669C73.6095 22.6666 73.6095 22.6663 73.6095 22.666C73.6095 22.6657 73.6095 22.6655 73.6095 22.6652C73.6095 22.6649 73.6095 22.6646 73.6095 22.6643C73.6095 22.664 73.6095 22.6638 73.6095 22.6635C73.6095 22.6632 73.6095 22.6629 73.6095 22.6626C73.6095 22.6623 73.6095 22.6621 73.6095 22.6618C73.6095 22.6615 73.6095 22.6612 73.6095 22.6609C73.6095 22.6607 73.6095 22.6604 73.6095 22.6601C73.6095 22.6598 73.6095 22.6595 73.6095 22.6592C73.6095 22.659 73.6095 22.6587 73.6095 22.6584C73.6095 22.6581 73.6095 22.6578 73.6095 22.6575C73.6095 22.6573 73.6095 22.657 73.6095 22.6567C73.6095 22.6564 73.6095 22.6561 73.6095 22.6558C73.6095 22.6556 73.6095 22.6553 73.6095 22.655C73.6095 22.6547 73.6095 22.6544 73.6095 22.6542C73.6095 22.6539 73.6095 22.6536 73.6095 22.6533C73.6095 22.653 73.6095 22.6527 73.6095 22.6525C73.6095 22.6522 73.6095 22.6519 73.6095 22.6516C73.6095 22.6513 73.6095 22.6511 73.6095 22.6508C73.6095 22.6505 73.6095 22.6502 73.6095 22.6499C73.6095 22.6496 73.6095 22.6494 73.6095 22.6491C73.6095 22.6488 73.6095 22.6485 73.6095 22.6482C73.6095 22.648 73.6095 22.6477 73.6095 22.6474C73.6095 22.6471 73.6095 22.6468 73.6095 22.6465C73.6095 22.6463 73.6095 22.646 73.6095 22.6457C73.6095 22.6454 73.6095 22.6451 73.6095 22.6449C73.6095 22.6446 73.6095 22.6443 73.6095 22.644C73.6095 22.6437 73.6095 22.6435 73.6095 22.6432C73.6095 22.6429 73.6095 22.6426 73.6095 22.6423C73.6095 22.6421 73.6095 22.6418 73.6095 22.6415C73.6095 22.6412 73.6095 22.6409 73.6095 22.6406C73.6095 22.6404 73.6095 22.6401 73.6095 22.6398C73.6095 22.6395 73.6095 22.6392 73.6095 22.639C73.6095 22.6387 73.6095 22.6384 73.6095 22.6381C73.6095 22.6378 73.6095 22.6376 73.6095 22.6373C73.6095 22.637 73.6095 22.6367 73.6095 22.6364C73.6095 22.6362 73.6095 22.6359 73.6095 22.6356C73.6095 22.6353 73.6095 22.635 73.6095 22.6348C73.6095 22.6345 73.6095 22.6342 73.6095 22.6339C73.6095 22.6336 73.6095 22.6334 73.6095 22.6331C73.6095 22.6328 73.6095 22.6325 73.6095 22.6322C73.6095 22.632 73.6095 22.6317 73.6095 22.6314C73.6095 22.6311 73.6095 22.6308 73.6095 22.6306C73.6095 22.6303 73.6095 22.63 73.6095 22.6297C73.6095 22.6294 73.6095 22.6292 73.6095 22.6289C73.6095 22.6286 73.6095 22.6283 73.6095 22.628C73.6095 22.6278 73.6095 22.6275 73.6095 22.6272C73.6095 22.6269 73.6095 22.6266 73.6095 22.6264C73.6095 22.6261 73.6095 22.6258 73.6095 22.6255C73.6095 22.6252 73.6095 22.625 73.6095 22.6247C73.6095 22.6244 73.6095 22.6241 73.6095 22.6238C73.6095 22.6236 73.6095 22.6233 73.6095 22.623C73.6095 22.6227 73.6095 22.6224 73.6095 22.6222C73.6095 22.6219 73.6095 22.6216 73.6095 22.6213C73.6095 22.6211 73.6095 22.6208 73.6095 22.6205C73.6095 22.6202 73.6095 22.6199 73.6095 22.6197C73.6095 22.6194 73.6095 22.6191 73.6095 22.6188C73.6095 22.6185 73.6095 22.6183 73.6095 22.618C73.6095 22.6177 73.6095 22.6174 73.6095 22.6171C73.6095 22.6169 73.6095 22.6166 73.6095 22.6163C73.6095 22.616 73.6095 22.6158 73.6095 22.6155C73.6095 22.6152 73.6095 22.6149 73.6095 22.6146C73.6095 22.6144 73.6095 22.6141 73.6095 22.6138C73.6095 22.6135 73.6095 22.6132 73.6095 22.613C73.6095 22.6127 73.6095 22.6124 73.6095 22.6121C73.6095 22.6119 73.6095 22.6116 73.6095 22.6113C73.6095 22.611 73.6095 22.6107 73.6095 22.6105C73.6095 22.6102 73.6095 22.6099 73.6095 22.6096C73.6095 22.6094 73.6095 22.6091 73.6095 22.6088C73.6095 22.6085 73.6095 22.6082 73.6095 22.608C73.6095 22.6077 73.6095 22.6074 73.6095 22.6071C73.6095 22.6069 73.6095 22.6066 73.6095 22.6063C73.6095 22.606 73.6095 22.6057 73.6095 22.6055C73.6095 22.6052 73.6095 22.6049 73.6095 22.6046C73.6095 22.6044 73.6095 22.6041 73.6095 22.6038C73.6095 22.6035 73.6095 22.6032 73.6095 22.603C73.6095 22.6027 73.6095 22.6024 73.6095 22.6021C73.6095 22.6019 73.6095 22.6016 73.6095 22.6013C73.6095 22.601 73.6095 22.6007 73.6095 22.6005C73.6095 22.6002 73.6095 22.5999 73.6095 22.5996C73.6095 22.5994 73.6095 22.5991 73.6095 22.5988C73.6095 22.5985 73.6095 22.5983 73.6095 22.598C73.6095 22.5977 73.6095 22.5974 73.6095 22.5971C73.6095 22.5969 73.6095 22.5966 73.6095 22.5963C73.6095 22.596 73.6095 22.5958 73.6095 22.5955C73.6095 22.5952 73.6095 22.5949 73.6095 22.5947C73.6095 22.5944 73.6095 22.5941 73.6095 22.5938C73.6095 22.5935 73.6095 22.5933 73.6095 22.593C73.6095 22.5927 73.6095 22.5924 73.6095 22.5922C73.6095 22.5919 73.6095 22.5916 73.6095 22.5913C73.6095 22.5911 73.6095 22.5908 73.6095 22.5905C73.6095 22.5902 73.6095 22.59 73.6095 22.5897C73.6095 22.5894 73.6095 22.5891 73.6095 22.5889C73.6095 22.5886 73.6095 22.5883 73.6095 22.588C73.6095 22.5877 73.6095 22.5875 73.6095 22.5872C73.6095 22.5869 73.6095 22.5866 73.6095 22.5864C73.6095 22.5861 73.6095 22.5858 73.6095 22.5855C73.6095 22.5853 73.6095 22.585 73.6095 22.5847C73.6095 22.5844 73.6095 22.5842 73.6095 22.5839C73.6095 22.5836 73.6095 22.5833 73.6095 22.5831C73.6095 22.5828 73.6095 22.5825 73.6095 22.5822C73.6095 22.582 73.6095 22.5817 73.6095 22.5814C73.6095 22.5811 73.6095 22.5809 73.6095 22.5806C73.6095 22.5803 73.6095 22.58 73.6095 22.5798C73.6095 22.5795 73.6095 22.5792 73.6095 22.5789C73.6095 22.5787 73.6095 22.5784 73.6095 22.5781C73.6095 22.5778 73.6095 22.5776 73.6095 22.5773C73.6095 22.577 73.6095 22.5767 73.6095 22.5765C73.6095 22.5762 73.6095 22.5759 73.6095 22.5756C73.6095 22.5754 73.6095 22.5751 73.6095 22.5748C73.6095 22.5745 73.6095 22.5743 73.6095 22.574C73.6095 22.5737 73.6095 22.5734 73.6095 22.5732C73.6095 22.5729 73.6095 22.5726 73.6095 22.5723C73.6095 22.5721 73.6095 22.5718 73.6095 22.5715C73.6095 22.5712 73.6095 22.571 73.6095 22.5707C73.6095 22.5704 73.6095 22.5701 73.6095 22.5699C73.6095 22.5696 73.6095 22.5693 73.6095 22.569C73.6095 22.5688 73.6095 22.5685 73.6095 22.5682C73.6095 22.5679 73.6095 22.5677 73.6095 22.5674C73.6095 22.5671 73.6095 22.5668 73.6095 22.5666C73.6095 22.5663 73.6095 22.566 73.6095 22.5657C73.6095 22.5655 73.6095 22.5652 73.6095 22.5649C73.6095 22.5647 73.6095 22.5644 73.6095 22.5641C73.6095 22.5638 73.6095 22.5636 73.6095 22.5633C73.6095 22.563 73.6095 22.5627 73.6095 22.5625C73.6095 22.5622 73.6095 22.5619 73.6095 22.5616C73.6095 22.5614 73.6095 22.5611 73.6095 22.5608C73.6095 22.5605 73.6095 22.5603 73.6095 22.56H73.0095ZM73.0095 23.01C73.0095 23.1527 72.9911 23.4087 72.9512 23.7886L73.5479 23.8514C73.5879 23.4713 73.6095 23.1873 73.6095 23.01H73.0095ZM73.2495 23.52H60.4395V24.12H73.2495V23.52ZM60.1479 23.8904C60.2959 24.5034 60.5397 25.0661 60.8799 25.5764L61.3791 25.2436C61.0793 24.7939 60.8632 24.2966 60.7311 23.7496L60.1479 23.8904ZM60.8799 25.5764C61.2162 26.0808 61.6162 26.5231 62.0795 26.9022L62.4595 26.4378C62.0429 26.0969 61.6829 25.6992 61.3791 25.2436L60.8799 25.5764ZM62.0795 26.9022C62.5456 27.2835 63.0646 27.58 63.6353 27.7913L63.8437 27.2287C63.3344 27.04 62.8735 26.7765 62.4595 26.4378L62.0795 26.9022ZM63.6386 27.7925C64.2324 28.0046 64.8566 28.11 65.5095 28.11V27.51C64.9224 27.51 64.3667 27.4154 63.8404 27.2275L63.6386 27.7925ZM65.5095 28.11C66.0413 28.11 66.567 27.9767 67.0837 27.7183L66.8153 27.1817C66.372 27.4033 65.9377 27.51 65.5095 27.51V28.11ZM67.0924 27.7138C67.5983 27.4398 68.0796 27.0833 68.5367 26.647L68.1224 26.213C67.6995 26.6167 67.2607 26.9402 66.8066 27.1862L67.0924 27.7138ZM68.1174 26.6421L69.9174 28.4421L70.3416 28.0179L68.5416 26.2179L68.1174 26.6421ZM69.9207 28.0146C69.2821 28.6339 68.5771 29.1358 67.8053 29.5217L68.0737 30.0583C68.9019 29.6442 69.6569 29.1061 70.3384 28.4454L69.9207 28.0146ZM67.8081 29.5203C67.0677 29.881 66.3025 30.06 65.5095 30.06V30.66C66.3966 30.66 67.2514 30.459 68.0709 30.0597L67.8081 29.5203ZM76.5244 10.05L76.7991 10.1708L76.8007 10.1669L76.5244 10.05ZM77.4244 8.73L77.6308 8.94786L77.6366 8.94213L77.4244 8.73ZM78.7444 7.83L78.6275 7.55368L78.6236 7.5554L78.7444 7.83ZM82.0144 7.89L81.8759 8.15646L81.8887 8.16239L82.0144 7.89ZM83.3644 8.88L83.5869 8.67872L83.5869 8.67872L83.3644 8.88ZM84.2644 10.38L83.9839 10.4864L83.9852 10.4897L84.2644 10.38ZM84.5944 12.21V12.51H84.8944V12.21H84.5944ZM82.0144 12.21H81.7144V12.51H82.0144V12.21ZM81.5344 10.68L81.2902 10.8545L81.2958 10.8618L81.5344 10.68ZM79.2244 10.53L79.0123 10.3179L79.0123 10.3179L79.2244 10.53ZM78.7744 19.74H78.4744V20.04H78.7744V19.74ZM84.0244 19.74H84.3244V19.44H84.0244V19.74ZM84.0244 22.32V22.62H84.3244V22.32H84.0244ZM78.7744 22.32V22.02H78.4744V22.32H78.7744ZM78.7744 30V30.3H79.0744V30H78.7744ZM76.1944 30H75.8944V30.3H76.1944V30ZM76.4944 11.67C76.4944 11.129 76.5968 10.6304 76.799 10.1708L76.2498 9.92918C76.0121 10.4696 75.8944 11.051 75.8944 11.67H76.4944ZM76.8007 10.1669C77.0059 9.68195 77.2831 9.27716 77.6308 8.94778L77.2181 8.51221C76.8058 8.90284 76.483 9.37805 76.2481 9.93311L76.8007 10.1669ZM77.6366 8.94213C77.9898 8.58887 78.3987 8.30987 78.8653 8.10459L78.6236 7.5554C78.0901 7.79013 77.619 8.11113 77.2123 8.51787L77.6366 8.94213ZM78.8613 8.10629C79.3433 7.90237 79.8535 7.8 80.3944 7.8V7.2C79.7754 7.2 79.1855 7.31763 78.6275 7.55371L78.8613 8.10629ZM80.3944 7.8C80.9277 7.8 81.42 7.91906 81.876 8.15616L82.1528 7.62383C81.6088 7.34094 81.0212 7.2 80.3944 7.2V7.8ZM81.8887 8.16239C82.3724 8.38564 82.7894 8.6916 83.142 9.08127L83.5869 8.67872C83.1795 8.2284 82.6964 7.87436 82.1401 7.61761L81.8887 8.16239ZM83.142 9.08127C83.4946 9.47101 83.7759 9.93803 83.9839 10.4864L84.5449 10.2736C84.3129 9.66197 83.9943 9.12899 83.5869 8.67872L83.142 9.08127ZM83.9852 10.4897C84.1902 11.0115 84.2944 11.5839 84.2944 12.21H84.8944C84.8944 11.5161 84.7787 10.8685 84.5437 10.2703L83.9852 10.4897ZM84.5944 11.91H82.0144V12.51H84.5944V11.91ZM82.3144 12.21C82.3144 11.5537 82.1382 10.9774 81.7731 10.4982L81.2958 10.8618C81.5707 11.2226 81.7144 11.6663 81.7144 12.21H82.3144ZM81.7786 10.5056C81.4302 10.0179 80.9642 9.75 80.3944 9.75V10.35C80.7446 10.35 81.0387 10.5021 81.2903 10.8544L81.7786 10.5056ZM80.3944 9.75C79.8563 9.75 79.3896 9.94057 79.0123 10.3179L79.4366 10.7421C79.6993 10.4794 80.0125 10.35 80.3944 10.35V9.75ZM79.0123 10.3179C78.651 10.6791 78.4744 11.1378 78.4744 11.67H79.0744C79.0744 11.2822 79.1978 10.9808 79.4366 10.7421L79.0123 10.3179ZM78.4744 11.67V19.74H79.0744V11.67H78.4744ZM78.7744 20.04H84.0244V19.44H78.7744V20.04ZM83.7244 19.74V22.32H84.3244V19.74H83.7244ZM84.0244 22.02H78.7744V22.62H84.0244V22.02ZM78.4744 22.32V30H79.0744V22.32H78.4744ZM78.7744 29.7H76.1944V30.3H78.7744V29.7ZM76.4944 30V11.67H75.8944V30H76.4944ZM90.7829 29.79L90.661 30.0642L90.6638 30.0654L90.7829 29.79ZM88.8929 28.5L88.6807 28.7121L88.6807 28.7121L88.8929 28.5ZM87.6029 26.61L87.3275 26.7291L87.3287 26.7318L87.6029 26.61ZM87.1229 14.97V14.67H86.8229V14.97H87.1229ZM89.7029 14.97H90.0029V14.67H89.7029V14.97ZM89.9729 25.62L89.6971 25.7382L89.6971 25.7382L89.9729 25.62ZM90.6929 26.73L90.474 26.9352L90.4806 26.9422L90.4877 26.9489L90.6929 26.73ZM91.7729 27.45L91.6497 27.7236L91.6547 27.7257L91.7729 27.45ZM94.4729 27.45L94.591 27.7257L94.591 27.7257L94.4729 27.45ZM95.5529 26.73L95.3407 26.5179L95.3407 26.5179L95.5529 26.73ZM96.3029 25.62L96.0271 25.5018L96.0271 25.5018L96.3029 25.62ZM96.5729 14.97V14.67H96.2729V14.97H96.5729ZM99.1229 14.97H99.4229V14.67H99.1229V14.97ZM98.6129 33.33L98.3416 33.2019L98.3403 33.2048L98.6129 33.33ZM97.2029 35.25L97.0022 35.027L96.9984 35.0304L97.2029 35.25ZM95.1329 36.51L95.0275 36.229L95.0215 36.2315L95.1329 36.51ZM92.5529 36.99H92.2529V37.29H92.5529V36.99ZM92.5529 34.44V34.14H92.2529V34.44H92.5529ZM94.1129 34.17L94.0112 33.8877L94.0075 33.8891L94.1129 34.17ZM95.4029 33.42L95.6022 33.6442L95.4029 33.42ZM96.2429 32.31L95.98 32.1654L95.9758 32.1731L95.972 32.181L96.2429 32.31ZM96.5729 29.19H96.8729V28.6232L96.4042 28.9419L96.5729 29.19ZM94.9529 30L95.0418 30.2867L95.0507 30.2836L94.9529 30ZM93.1229 29.97C92.3431 29.97 91.6037 29.8181 90.9019 29.5146L90.6638 30.0654C91.442 30.4019 92.2626 30.57 93.1229 30.57V29.97ZM90.9047 29.5159C90.2173 29.2103 89.6181 28.801 89.105 28.2879L88.6807 28.7121C89.2476 29.279 89.9085 29.7297 90.661 30.0641L90.9047 29.5159ZM89.105 28.2879C88.5919 27.7747 88.1825 27.1756 87.877 26.4882L87.3287 26.7318C87.6632 27.4844 88.1139 28.1453 88.6807 28.7121L89.105 28.2879ZM87.8782 26.4909C87.5748 25.7892 87.4229 25.0498 87.4229 24.27H86.8229C86.8229 25.1302 86.991 25.9508 87.3275 26.7291L87.8782 26.4909ZM87.4229 24.27V14.97H86.8229V24.27H87.4229ZM87.1229 15.27H89.7029V14.67H87.1229V15.27ZM89.4029 14.97V24.27H90.0029V14.97H89.4029ZM89.4029 24.27C89.4029 24.7885 89.5003 25.279 89.6971 25.7382L90.2486 25.5018C90.0854 25.121 90.0029 24.7115 90.0029 24.27H89.4029ZM89.6971 25.7382C89.8903 26.1889 90.1491 26.5887 90.474 26.9352L90.9117 26.5248C90.6366 26.2313 90.4154 25.8911 90.2486 25.5018L89.6971 25.7382ZM90.4877 26.9489C90.8318 27.2715 91.2196 27.53 91.6498 27.7236L91.896 27.1764C91.5262 27.01 91.1939 26.7885 90.8981 26.5111L90.4877 26.9489ZM91.6547 27.7257C92.1139 27.9225 92.6043 28.02 93.1229 28.02V27.42C92.6814 27.42 92.2718 27.3374 91.891 27.1743L91.6547 27.7257ZM93.1229 28.02C93.6414 28.02 94.1318 27.9225 94.591 27.7257L94.3547 27.1743C93.9739 27.3374 93.5643 27.42 93.1229 27.42V28.02ZM94.591 27.7257C95.0434 27.5319 95.436 27.2711 95.765 26.9421L95.3407 26.5179C95.0697 26.7889 94.7423 27.0081 94.3547 27.1743L94.591 27.7257ZM95.765 26.9421C96.1123 26.5949 96.3837 26.1929 96.5786 25.7382L96.0271 25.5018C95.862 25.8871 95.6335 26.2251 95.3407 26.5179L95.765 26.9421ZM96.5786 25.7382C96.7754 25.279 96.8729 24.7885 96.8729 24.27H96.2729C96.2729 24.7115 96.1903 25.121 96.0271 25.5018L96.5786 25.7382ZM96.8729 24.27V14.97H96.2729V24.27H96.8729ZM96.5729 15.27H99.1229V14.67H96.5729V15.27ZM98.8229 14.97V30.99H99.4229V14.97H98.8229ZM98.8229 30.99C98.8229 31.7882 98.6616 32.5241 98.3416 33.2019L98.8841 33.4581C99.2441 32.6959 99.4229 31.8718 99.4229 30.99H98.8229ZM98.3403 33.2048C98.0172 33.908 97.5715 34.5146 97.0022 35.027L97.4036 35.473C98.0342 34.9054 98.5286 34.232 98.8855 33.4553L98.3403 33.2048ZM96.9984 35.0304C96.4493 35.5417 95.7937 35.9418 95.0275 36.2291L95.2382 36.7909C96.072 36.4782 96.7964 36.0383 97.4073 35.4696L96.9984 35.0304ZM95.0215 36.2315C94.2592 36.5363 93.4373 36.69 92.5529 36.69V37.29C93.5084 37.29 94.4065 37.1237 95.2443 36.7885L95.0215 36.2315ZM92.8529 36.99V34.44H92.2529V36.99H92.8529ZM92.5529 34.74C93.1455 34.74 93.7015 34.6446 94.2182 34.4509L94.0075 33.8891C93.5642 34.0554 93.0802 34.14 92.5529 34.14V34.74ZM94.2145 34.4523C94.7467 34.2607 95.2108 33.9921 95.6022 33.6442L95.2036 33.1958C94.8749 33.4879 94.479 33.7193 94.0113 33.8877L94.2145 34.4523ZM95.6022 33.6442C95.9911 33.2985 96.2959 32.8965 96.5137 32.439L95.972 32.181C95.7899 32.5635 95.5347 32.9015 95.2036 33.1958L95.6022 33.6442ZM96.5057 32.4546C96.7514 32.008 96.8729 31.5179 96.8729 30.99H96.2729C96.2729 31.4221 96.1744 31.812 95.98 32.1654L96.5057 32.4546ZM96.8729 30.99V29.19H96.2729V30.99H96.8729ZM96.4042 28.9419C95.9265 29.2668 95.4103 29.5249 94.8551 29.7164L95.0507 30.2836C95.6554 30.0751 96.2193 29.7932 96.7416 29.4381L96.4042 28.9419ZM94.8639 29.7135C94.3143 29.8841 93.7343 29.97 93.1229 29.97V30.57C93.7914 30.57 94.4315 30.4759 95.0418 30.2865L94.8639 29.7135Z" fill="#191414"/>
</g>
<circle cx="16" cy="20" r="15" fill="white" stroke="#191414" stroke-width="0.5"/>
<path fill-rule="evenodd" clip-rule="evenodd" d="M16 35V5C7.71573 5 1 11.7157 1 20C1 28.2843 7.71573 35 16 35Z" fill="#27B76F"/>
<path fill-rule="evenodd" clip-rule="evenodd" d="M31 20C31 28.2843 24.2843 35 16 35V5C24.2843 5 31 11.7157 31 20Z" fill="#20975C"/>
<g clip-path="url(#clip0_13_20)">
<path d="M28.123 19.0611C28.123 12.4104 22.7122 7 16.0615 7C9.41074 7 4 12.4104 4 19.0611C4 21.768 4.95313 24.3305 5.83677 26.3836C5.523 27.0006 5.41294 27.768 5.58281 28.5517C5.93252 30.1622 7.32642 31.2274 8.6957 30.9303C8.89233 30.8876 9.07632 30.8165 9.24863 30.7256C9.68589 31.6416 10.7067 32.1733 11.7421 31.9486C12.9502 31.6862 13.7169 30.495 13.455 29.2867L12.4423 24.6194C12.1795 23.4111 10.988 22.6442 9.77925 22.9066C8.74453 23.1313 8.03574 24.0381 8.01763 25.053C7.93687 25.0484 7.85571 25.0486 7.77417 25.053C7.03193 23.2742 6.30283 21.1589 6.30283 19.061C6.30283 13.6802 10.6807 9.30288 16.0615 9.30288C21.4423 9.30288 25.8201 13.6802 25.8201 19.061C25.8201 21.1643 25.0874 23.2849 24.3432 25.0665C24.2098 25.0495 24.0769 25.0453 23.9449 25.053C23.9268 24.0381 23.218 23.1313 22.1833 22.9066C20.9745 22.6442 19.783 23.4111 19.5203 24.6194L18.5075 29.2867C18.2455 30.495 19.0124 31.6862 20.2205 31.9486C21.2559 32.1733 22.2767 31.6416 22.7138 30.7256C22.8862 30.8164 23.0702 30.8875 23.2668 30.9303C24.6361 31.2275 26.03 30.1622 26.3797 28.5517C26.5336 27.8417 26.4587 27.1446 26.2101 26.5607C27.1141 24.4791 28.123 21.8458 28.123 19.0611Z" fill="#191414"/>
</g>
<defs>
<clipPath id="clip0_13_20">
<rect width="24.123" height="25" fill="white" transform="translate(4 7)"/>
</clipPath>
</defs>
</svg>
