<svg width="750" height="200" viewBox="0 0 750 200" fill="none" xmlns="http://www.w3.org/2000/svg">
<path d="M0 55.5556C0 24.8731 27.0796 0 60.4839 0H689.516C722.92 0 750 24.8731 750 55.5556V144.444C750 175.127 722.92 200 689.516 200H60.4839C27.0795 200 0 175.127 0 144.444V55.5556Z" fill="white"/>
<ellipse cx="108.871" cy="98.15" rx="72.5806" ry="66.6667" fill="white" stroke="#191414" stroke-width="1.35954"/>
<path fill-rule="evenodd" clip-rule="evenodd" d="M108.871 164.817V31.4833C68.7858 31.4833 36.2903 61.331 36.2903 98.15C36.2903 134.969 68.7858 164.817 108.871 164.817Z" fill="#27B76F"/>
<path fill-rule="evenodd" clip-rule="evenodd" d="M181.452 98.1937C181.426 134.993 148.94 164.817 108.871 164.817L108.871 31.4833C108.871 31.4833 108.871 31.4833 108.871 31.4833C148.94 31.4833 181.426 61.3074 181.452 98.1063V98.1937Z" fill="#20975C"/>
<path opacity="0.8" d="M162.097 96.4334C162.097 70.4216 138.22 49.2611 108.871 49.2611C79.5221 49.2611 55.6452 70.4216 55.6452 96.4334C55.6452 107.021 59.8512 117.043 63.7506 125.073C62.366 127.486 61.8803 130.487 62.6299 133.552C64.1731 139.851 70.3242 144.017 76.3667 142.855C77.2344 142.688 78.0463 142.41 78.8067 142.055C80.7363 145.637 85.241 147.717 89.8101 146.838C95.1413 145.812 98.5248 141.153 97.3688 136.427L92.8999 118.173C91.5474 113.105 86.4825 110.447 81.1483 111.474C76.5822 112.353 73.4544 115.899 73.3745 119.868C73.0181 119.85 72.66 119.851 72.3001 119.868C69.0247 112.911 65.8073 104.638 65.8073 96.4332C65.8073 75.3882 85.1261 58.2679 108.871 58.2679C132.616 58.2679 151.935 75.3882 151.935 96.4332C151.935 104.659 148.701 112.953 145.417 119.921C144.828 119.855 144.242 119.838 143.66 119.868C143.58 115.899 140.452 112.353 135.886 111.474C130.552 110.447 125.294 113.447 124.134 118.173L119.665 136.427C118.509 141.153 121.893 145.812 127.224 146.838C131.793 147.717 136.298 145.637 138.227 142.055C138.988 142.41 139.8 142.688 140.667 142.855C146.71 144.018 152.861 139.851 154.404 133.552C155.083 130.776 154.753 128.049 153.656 125.765C157.645 117.624 162.097 107.325 162.097 96.4334Z" fill="#191414"/>
<path d="M322.887 70.6333C322.887 78.1444 321.21 84.4518 317.855 89.5555C314.552 94.6111 309.992 98.4389 304.173 101.039C298.407 103.591 291.802 104.867 284.359 104.867H261.321V87.9667C262.736 87.8704 264.911 87.7741 267.847 87.6778C270.782 87.5815 273.639 87.5093 276.417 87.4611C279.248 87.3648 281.188 87.3167 282.236 87.3167C286.429 87.3167 289.601 86.4018 291.75 84.5722C293.899 82.7426 295.341 80.5518 296.075 78C296.809 75.4 297.175 72.9444 297.175 70.6333C297.175 68.3704 296.809 65.963 296.075 63.4111C295.341 60.8111 293.899 58.5963 291.75 56.7667C289.601 54.937 286.429 54.0222 282.236 54.0222C280.663 54.0222 279.091 54.0222 277.518 54.0222C275.998 53.9741 274.163 53.9259 272.014 53.8778V135.778C269.917 136.115 267.69 136.331 265.331 136.428C263.024 136.572 261.032 136.644 259.355 136.644C257.835 136.644 255.843 136.572 253.379 136.428C250.968 136.331 248.766 136.115 246.774 135.778V37.8444L247.875 36.8333C254.585 36.6889 260.849 36.5685 266.667 36.4722C272.538 36.3278 278.436 36.2556 284.359 36.2556C291.802 36.2556 298.407 37.5074 304.173 40.0111C309.992 42.4667 314.552 46.2463 317.855 51.35C321.21 56.4056 322.887 62.8333 322.887 70.6333Z" fill="black"/>
<path d="M411.372 63.9167C411.372 66.5648 410.848 69.9593 409.799 74.1C408.751 78.1926 407.231 81.8278 405.239 85.0056C403.876 84.5241 402.513 84.187 401.15 83.9944C399.84 83.8018 398.503 83.6333 397.14 83.4889C395.043 83.4889 393.156 83.85 391.479 84.5722C389.801 85.2463 388.281 86.2574 386.918 87.6055C385.555 88.9537 384.271 90.6148 383.065 92.5889C381.86 94.563 380.707 96.8259 379.606 99.3778L376.854 95.9833C377.116 91.987 377.666 88.0389 378.505 84.1389C379.344 80.1907 380.628 76.6037 382.358 73.3778C384.088 70.1518 386.446 67.5759 389.434 65.65C392.475 63.6759 396.301 62.6889 400.914 62.6889C403.325 62.6889 405.265 62.8092 406.733 63.05C408.253 63.2426 409.799 63.5315 411.372 63.9167ZM353.737 74.1722C354.156 72.15 355.126 69.9833 356.646 67.6722C358.166 65.313 359.686 63.6037 361.206 62.5444C368.493 63.0259 373.971 65.5055 377.64 69.9833C381.362 74.413 383.563 80.2389 384.245 87.4611V135.778C382.515 136.067 380.575 136.283 378.426 136.428C376.277 136.572 374.128 136.644 371.979 136.644C369.934 136.644 367.811 136.572 365.61 136.428C363.461 136.283 361.469 136.067 359.634 135.778V89.1222C359.634 84.837 358.952 81.4907 357.59 79.0833C356.279 76.6278 354.995 74.9907 353.737 74.1722Z" fill="black"/>
<path d="M453.252 107.033V91.5055H482.895V89.8444C482.895 87.6296 482.554 85.6074 481.873 83.7778C481.191 81.9 480.09 80.4074 478.57 79.3C477.102 78.1444 475.11 77.5667 472.594 77.5667C468.768 77.5667 466.068 79.0111 464.496 81.9C462.975 84.7889 462.215 89.2426 462.215 95.2611V102.05C462.215 105.324 462.53 108.381 463.159 111.222C463.788 114.063 465.125 116.35 467.169 118.083C469.213 119.817 472.332 120.683 476.526 120.683C480.09 120.683 483.576 120.274 486.983 119.456C490.443 118.589 493.746 117.554 496.891 116.35C498.725 117.987 500.193 120.057 501.294 122.561C502.395 125.065 503.129 127.448 503.496 129.711C499.512 132.359 494.742 134.381 489.185 135.778C483.681 137.222 478.125 137.944 472.516 137.944C465.596 137.944 459.883 136.909 455.375 134.839C450.867 132.72 447.302 129.88 444.681 126.317C442.06 122.706 440.199 118.661 439.098 114.183C438.05 109.657 437.526 105.011 437.526 100.244C437.526 92.9741 438.705 86.4259 441.064 80.6C443.475 74.7259 447.276 70.0796 452.465 66.6611C457.655 63.2426 464.417 61.5333 472.752 61.5333C479.671 61.5333 485.568 62.8815 490.443 65.5778C495.318 68.2741 499.04 71.9333 501.608 76.5555C504.229 81.1296 505.54 86.3296 505.54 92.1555C505.54 95.3815 505.356 98.0778 504.99 100.244C504.675 102.363 504.151 104.626 503.417 107.033H453.252Z" fill="black"/>
<path d="M560.202 63.8444L591.103 63.5556C591.418 64.7593 591.627 66.0593 591.732 67.4555C591.889 68.8518 591.968 70.1759 591.968 71.4278C591.968 72.6796 591.889 74.0518 591.732 75.5444C591.627 76.9889 591.418 78.337 591.103 79.5889L559.887 79.1555L534.726 79.5889C534.412 78.337 534.176 76.9889 534.018 75.5444C533.861 74.0518 533.783 72.6796 533.783 71.4278C533.783 70.1759 533.861 68.8518 534.018 67.4555C534.176 66.0593 534.412 64.7593 534.726 63.5556L560.202 63.8444ZM548.25 73.0889C547.936 69.9593 547.516 66.8296 546.992 63.7C546.468 60.5704 546.206 57.3685 546.206 54.0944C546.206 49.2796 547.333 44.9944 549.587 41.2389C551.893 37.4352 555.117 34.4259 559.258 32.2111C563.399 29.9963 568.196 28.8889 573.647 28.8889C578.575 28.8889 583.135 29.3222 587.329 30.1889C591.522 31.0074 594.982 31.8981 597.708 32.8611C597.813 35.413 597.341 38.1574 596.293 41.0944C595.297 43.9833 594.012 46.1981 592.44 47.7389C590.867 47.3537 588.98 46.9444 586.778 46.5111C584.629 46.0778 582.48 45.8611 580.331 45.8611C576.976 45.8611 574.355 46.6796 572.468 48.3167C570.633 49.9537 569.716 52.4092 569.716 55.6833C569.716 58.3796 570.03 61.3167 570.66 64.4944C571.341 67.6241 571.865 70.537 572.232 73.2333V135.778C568.458 136.356 564.395 136.644 560.045 136.644C555.903 136.644 551.972 136.356 548.25 135.778V73.0889Z" fill="black"/>
<path d="M678.3 133.828C676.413 140.376 674.028 146.178 671.145 151.233C668.262 156.289 664.33 160.237 659.351 163.078C654.423 165.967 647.871 167.411 639.693 167.411C636.548 167.411 633.115 167.074 629.393 166.4C625.671 165.774 622.736 165.124 620.586 164.45C620.324 161.898 620.665 159.009 621.609 155.783C622.605 152.557 623.915 150.078 625.54 148.344C627.218 148.826 629.341 149.307 631.909 149.789C634.53 150.319 637.125 150.583 639.693 150.583C642.367 150.583 644.699 150.102 646.691 149.139C648.736 148.224 650.439 146.876 651.802 145.094C653.218 143.361 654.318 141.291 655.105 138.883L655.734 136.789C651.488 136.741 647.949 136.067 645.119 134.767C642.341 133.419 640.427 131.059 639.379 127.689L621.058 65.4333C623.574 64.3741 626.222 63.6037 629 63.1222C631.778 62.6407 634.189 62.4 636.234 62.4C639.222 62.4 641.685 63.0741 643.625 64.4222C645.617 65.7704 647.111 68.3222 648.107 72.0778L655.498 99.8833C655.97 101.472 656.415 103.47 656.834 105.878C657.254 108.237 657.647 110.596 658.014 112.956C658.433 115.267 658.748 117.217 658.957 118.806C659.062 119.48 659.508 119.817 660.294 119.817L673.976 63.7722C675.339 63.4352 676.911 63.1944 678.693 63.05C680.476 62.9055 682.127 62.8333 683.647 62.8333C685.796 62.8333 687.972 62.9537 690.173 63.1944C692.375 63.387 694.576 63.8204 696.778 64.4944L697.722 66.0111L678.3 133.828Z" fill="black"/>
</svg>
