<svg width="380" height="110" viewBox="0 0 380 110" fill="none" xmlns="http://www.w3.org/2000/svg">
<circle cx="60" cy="55" r="50" fill="white" stroke="#191414"/>
<path fill-rule="evenodd" clip-rule="evenodd" d="M60 105V5C32.3858 5 10 27.3858 10 55C10 82.6142 32.3858 105 60 105Z" fill="#27B76F"/>
<path fill-rule="evenodd" clip-rule="evenodd" d="M110 55.0197C109.989 82.6249 87.6077 105 60 105L60 5C60 5 60 5 60 5C87.6077 5 109.989 27.3751 110 54.9803C110 54.9868 110 54.9934 110 55C110 55.0066 110 55.0132 110 55.0197Z" fill="#20975C"/>
<path opacity="0.8" d="M96.6667 53.7125C96.6667 34.2037 80.2181 18.3333 60 18.3333C39.7819 18.3333 23.3333 34.2037 23.3333 53.7125C23.3333 61.6529 26.2308 69.1696 28.9171 75.1919C27.9632 77.0019 27.6287 79.2528 28.1451 81.5516C29.2082 86.2759 33.4456 89.4005 37.6082 88.529C38.206 88.4037 38.7653 88.195 39.2891 87.9286C40.6183 90.6153 43.7216 92.175 46.8692 91.516C50.5418 90.7462 52.8727 87.2521 52.0763 83.7078L48.9977 70.0171C48.066 66.216 44.5768 64.223 40.9022 64.9929C37.7566 65.652 35.6019 68.3118 35.5469 71.2888C35.3013 71.2753 35.0546 71.2759 34.8068 71.2888C32.5504 66.0709 30.3339 59.8662 30.3339 53.7124C30.3339 37.9287 43.6424 25.0885 60 25.0885C76.3576 25.0885 89.6661 37.9287 89.6661 53.7124C89.6661 59.8819 87.4387 66.1023 85.1762 71.3285C84.7707 71.2786 84.3668 71.2663 83.9655 71.2888C83.9105 68.3118 81.7558 65.652 78.6103 64.9929C74.9356 64.223 71.3134 66.4727 70.5147 70.0171L67.4358 83.7078C66.6394 87.2521 68.9706 90.7462 72.6432 91.516C75.7908 92.1752 78.8941 90.6153 80.223 87.9286C80.7471 88.1948 81.3065 88.4035 81.9042 88.529C86.0668 89.4007 90.3042 86.2759 91.3673 81.5516C91.8352 79.4692 91.6074 77.4243 90.8517 75.7116C93.5997 69.6054 96.6667 61.8811 96.6667 53.7125Z" fill="#191414"/>
<path d="M170.783 44.665C170.783 49.085 169.876 52.7967 168.063 55.8C166.278 58.775 163.813 61.0275 160.668 62.5575C157.551 64.0592 153.981 64.81 149.958 64.81H137.506V54.865C138.271 54.8083 139.446 54.7517 141.033 54.695C142.62 54.6383 144.164 54.5958 145.666 54.5675C147.196 54.5108 148.244 54.4825 148.811 54.4825C151.077 54.4825 152.791 53.9442 153.953 52.8675C155.115 51.7908 155.894 50.5017 156.291 49C156.687 47.47 156.886 46.025 156.886 44.665C156.886 43.3333 156.687 41.9167 156.291 40.415C155.894 38.885 155.115 37.5817 153.953 36.505C152.791 35.4283 151.077 34.89 148.811 34.89C147.961 34.89 147.111 34.89 146.261 34.89C145.439 34.8617 144.447 34.8333 143.286 34.805V83C142.152 83.1983 140.948 83.3258 139.673 83.3825C138.426 83.4675 137.35 83.51 136.443 83.51C135.621 83.51 134.545 83.4675 133.213 83.3825C131.91 83.3258 130.72 83.1983 129.643 83V25.37L130.238 24.775C133.865 24.69 137.251 24.6192 140.396 24.5625C143.569 24.4775 146.756 24.435 149.958 24.435C153.981 24.435 157.551 25.1717 160.668 26.645C163.813 28.09 166.278 30.3142 168.063 33.3175C169.876 36.2925 170.783 40.075 170.783 44.665ZM214.36 40.7125C214.36 42.2708 214.077 44.2683 213.51 46.705C212.944 49.1133 212.122 51.2525 211.045 53.1225C210.309 52.8392 209.572 52.6408 208.835 52.5275C208.127 52.4142 207.404 52.315 206.668 52.23C205.534 52.23 204.514 52.4425 203.608 52.8675C202.701 53.2642 201.879 53.8592 201.143 54.6525C200.406 55.4458 199.712 56.4233 199.06 57.585C198.409 58.7467 197.785 60.0783 197.19 61.58L195.703 59.5825C195.844 57.2308 196.142 54.9075 196.595 52.6125C197.049 50.2892 197.743 48.1783 198.678 46.28C199.613 44.3817 200.888 42.8658 202.503 41.7325C204.146 40.5708 206.214 39.99 208.708 39.99C210.011 39.99 211.059 40.0608 211.853 40.2025C212.674 40.3158 213.51 40.4858 214.36 40.7125ZM183.208 46.7475C183.434 45.5575 183.959 44.2825 184.78 42.9225C185.602 41.5342 186.424 40.5283 187.245 39.905C191.184 40.1883 194.144 41.6475 196.128 44.2825C198.139 46.8892 199.329 50.3175 199.698 54.5675V83C198.763 83.17 197.714 83.2975 196.553 83.3825C195.391 83.4675 194.229 83.51 193.068 83.51C191.963 83.51 190.815 83.4675 189.625 83.3825C188.464 83.2975 187.387 83.17 186.395 83V55.545C186.395 53.0233 186.027 51.0542 185.29 49.6375C184.582 48.1925 183.888 47.2292 183.208 46.7475ZM232.747 66.085V56.9475H248.769V55.97C248.769 54.6667 248.585 53.4767 248.217 52.4C247.848 51.295 247.253 50.4167 246.432 49.765C245.638 49.085 244.562 48.745 243.202 48.745C241.133 48.745 239.674 49.595 238.824 51.295C238.003 52.995 237.592 55.6158 237.592 59.1575V63.1525C237.592 65.0792 237.762 66.8783 238.102 68.55C238.442 70.2217 239.164 71.5675 240.269 72.5875C241.374 73.6075 243.06 74.1175 245.327 74.1175C247.253 74.1175 249.138 73.8767 250.979 73.395C252.849 72.885 254.634 72.2758 256.334 71.5675C257.326 72.5308 258.119 73.7492 258.714 75.2225C259.309 76.6958 259.706 78.0983 259.904 79.43C257.751 80.9883 255.173 82.1783 252.169 83C249.194 83.85 246.191 84.275 243.159 84.275C239.419 84.275 236.331 83.6658 233.894 82.4475C231.458 81.2008 229.531 79.5292 228.114 77.4325C226.698 75.3075 225.692 72.9275 225.097 70.2925C224.53 67.6292 224.247 64.895 224.247 62.09C224.247 57.8117 224.884 53.9583 226.159 50.53C227.463 47.0733 229.517 44.3392 232.322 42.3275C235.127 40.3158 238.782 39.31 243.287 39.31C247.027 39.31 250.214 40.1033 252.849 41.69C255.484 43.2767 257.496 45.43 258.884 48.15C260.301 50.8417 261.009 53.9017 261.009 57.33C261.009 59.2283 260.91 60.815 260.712 62.09C260.542 63.3367 260.258 64.6683 259.862 66.085H232.747ZM286.305 40.67L303.007 40.5C303.177 41.2083 303.291 41.9733 303.347 42.795C303.432 43.6167 303.475 44.3958 303.475 45.1325C303.475 45.8692 303.432 46.6767 303.347 47.555C303.291 48.405 303.177 49.1983 303.007 49.935L286.135 49.68L272.535 49.935C272.365 49.1983 272.237 48.405 272.152 47.555C272.067 46.6767 272.025 45.8692 272.025 45.1325C272.025 44.3958 272.067 43.6167 272.152 42.795C272.237 41.9733 272.365 41.2083 272.535 40.5L286.305 40.67ZM279.845 46.11C279.675 44.2683 279.448 42.4267 279.165 40.585C278.881 38.7433 278.74 36.8592 278.74 34.9325C278.74 32.0992 279.349 29.5775 280.567 27.3675C281.814 25.1292 283.556 23.3583 285.795 22.055C288.033 20.7517 290.626 20.1 293.572 20.1C296.236 20.1 298.701 20.355 300.967 20.865C303.234 21.3467 305.104 21.8708 306.577 22.4375C306.634 23.9392 306.379 25.5542 305.812 27.2825C305.274 28.9825 304.58 30.2858 303.73 31.1925C302.88 30.9658 301.86 30.725 300.67 30.47C299.508 30.215 298.346 30.0875 297.185 30.0875C295.371 30.0875 293.955 30.5692 292.935 31.5325C291.943 32.4958 291.447 33.9408 291.447 35.8675C291.447 37.4542 291.617 39.1825 291.957 41.0525C292.326 42.8942 292.609 44.6083 292.807 46.195V83C290.767 83.34 288.571 83.51 286.22 83.51C283.981 83.51 281.856 83.34 279.845 83V46.11ZM345.888 81.8525C344.868 85.7058 343.579 89.12 342.021 92.095C340.463 95.07 338.338 97.3933 335.646 99.065C332.983 100.765 329.441 101.615 325.021 101.615C323.321 101.615 321.465 101.417 319.453 101.02C317.442 100.652 315.855 100.269 314.693 99.8725C314.552 98.3708 314.736 96.6708 315.246 94.7725C315.784 92.8742 316.493 91.415 317.371 90.395C318.278 90.6783 319.425 90.9617 320.813 91.245C322.23 91.5567 323.633 91.7125 325.021 91.7125C326.466 91.7125 327.727 91.4292 328.803 90.8625C329.908 90.3242 330.829 89.5308 331.566 88.4825C332.331 87.4625 332.926 86.2442 333.351 84.8275L333.691 83.595C331.396 83.5667 329.483 83.17 327.953 82.405C326.452 81.6117 325.418 80.2233 324.851 78.24L314.948 41.605C316.308 40.9817 317.739 40.5283 319.241 40.245C320.743 39.9617 322.046 39.82 323.151 39.82C324.766 39.82 326.098 40.2167 327.146 41.01C328.223 41.8033 329.03 43.305 329.568 45.515L333.563 61.8775C333.818 62.8125 334.059 63.9883 334.286 65.405C334.513 66.7933 334.725 68.1817 334.923 69.57C335.15 70.93 335.32 72.0775 335.433 73.0125C335.49 73.4092 335.731 73.6075 336.156 73.6075L343.551 40.6275C344.288 40.4292 345.138 40.2875 346.101 40.2025C347.064 40.1175 347.957 40.075 348.778 40.075C349.94 40.075 351.116 40.1458 352.306 40.2875C353.496 40.4008 354.686 40.6558 355.876 41.0525L356.386 41.945L345.888 81.8525Z" fill="black"/>
</svg>
